<svg xmlns="http://www.w3.org/2000/svg" xmlns:xlink="http://www.w3.org/1999/xlink" viewBox="0 0 750 500.9"><defs><style>.cls-1{isolation:isolate;}.cls-15,.cls-2{fill:#fff;}.cls-3{fill:#f5e9ff;}.cls-4{fill:#e5d7ff;}.cls-5{fill:#3f51b5;}.cls-6{fill:none;stroke:#000;stroke-linecap:round;stroke-linejoin:round;stroke-width:1.79px;}.cls-10,.cls-15,.cls-6{opacity:0.25;mix-blend-mode:overlay;}.cls-19,.cls-24,.cls-7{fill:#021b79;}.cls-8{fill:#490a0a;}.cls-9{fill:#2196f3;}.cls-11{fill:url(#linear-gradient);}.cls-12{fill:#320a44;}.cls-13{fill:url(#linear-gradient-2);}.cls-14{fill:url(#linear-gradient-3);}.cls-16{fill:#4a0884;}.cls-17{fill:#a52ce5;}.cls-18{fill:#456dff;}.cls-19{font-size:26px;}.cls-19,.cls-24{font-family:MyriadPro-Regular, Myriad Pro;}.cls-20{letter-spacing:-0.08em;}.cls-21{letter-spacing:0em;}.cls-22{letter-spacing:0em;}.cls-23{letter-spacing:-0.01em;}.cls-24{font-size:41.39px;}.cls-25{letter-spacing:0em;}</style><linearGradient id="linear-gradient" x1="428.82" y1="182.27" x2="472.11" y2="154.55" gradientUnits="userSpaceOnUse"><stop offset="0" stop-color="#ff8d8d"/><stop offset="1" stop-color="#e55555"/></linearGradient><linearGradient id="linear-gradient-2" x1="219.92" y1="305.73" x2="358.27" y2="402.85" xlink:href="#linear-gradient"/><linearGradient id="linear-gradient-3" x1="219.92" y1="305.73" x2="358.27" y2="402.85" xlink:href="#linear-gradient"/></defs><g class="cls-1"><g id="BACKGROUND"><rect class="cls-2" width="750" height="500"/></g><g id="OBJECTS"><path class="cls-3" d="M79.29,251s-28.86-70.11,31.61-123,126,17.86,182.25,15.11,94-104.45,170.61-100.33S574.52,121,553,173.26s-30.15,134.79-7.29,178.38S618.5,362.19,650.57,398,585.41,500,585.41,500H390.12s-40-62.36-64.56-62.14S126.93,385.42,79.29,251Z"/><path class="cls-4" d="M497.63,203.52s67.9-85-6.17-136.52-114,56.8-176.74,68.26-187.33-1.38-185.5,94.83S197.48,360.3,201.61,407.2,237.8,472,268.49,459.4,386.92,297.22,436.41,274.13,497.63,203.52,497.63,203.52Z"/><path class="cls-4" d="M262.77,105.94S305,126.59,314,101.66,238,92,262.77,105.94Z"/><path class="cls-5" d="M390.36,479.16s-15.4-53.65-54.71-72c2.63,11.24.94,77.42,22,92.78H404Z"/><path class="cls-6" d="M388.12,472.56s-11.91,8.78-12.47,18.1c-21.78-10.25-29.61-9.05-29.61-9.05"/><path class="cls-6" d="M380,453s-10.94,6.82-12.14,15.71c0,0-17.25-8.56-27-8.85"/><path class="cls-6" d="M367.08,432.9s-7,2.74-7.68,9.91a60.12,60.12,0,0,0-21.08-4.13"/><path class="cls-6" d="M380,500c-2.63-4.44-9-19.59-16.71-46.41s-27.61-46.39-27.61-46.39"/><path class="cls-7" d="M433.11,500s.19-32.89-44.32-47c-6.38,26.28,11.83,47,11.83,47Z"/><path class="cls-6" d="M388.79,453s28.44,36.92,28.21,47"/><path class="cls-6" d="M428.28,483s-11,3-12.83,11.12a48.38,48.38,0,0,0-20.05-1.68"/><path class="cls-6" d="M417.29,468.71s-8.89,5.22-9.45,11.46C394,475.43,389.32,478,389.32,478"/><path class="cls-6" d="M404.94,459.86s-4.66,3.89-5.24,8.09a36.51,36.51,0,0,0-12.2-1.23"/><path class="cls-2" d="M225.89,317.82s-8.25-21.08-14-30.24-5.26-20.61-9.85-31.15-13.51-13.52-16-23.59a45.85,45.85,0,0,0-8.7-17.18s217.49-38.83,251.51-39,45,119,45,119L248.79,341Z"/><path class="cls-8" d="M418.71,472.46,416.37,500H569.94l-6.87-24.16S423.7,470.66,418.71,472.46Z"/><path class="cls-9" d="M573.55,482.92c-21.27,22.24-89.39,19.59-127.12,9.89-13.77-3.54-23.49-8-25.4-12.58-3.58-8.48-3.81-18.64-2.93-28.85s2.92-20.68,3.83-29.46a106.4,106.4,0,0,0,.13-14.31c-.61-13.74-2.69-30.89-4-40.68-.64-4.79-1.09-7.81-1.09-7.81s-38.2,47.06-50.06,57.62c-1.74,1.56-2.92,2.32-3.32,2-1.46-1-5-14.59-8.17-28.92-3.66-16.39-6.9-33.83-6.18-34.78,0-.06.11-.19.22-.41,3.17-6.51,34.08-83.9,40.6-96.93,3.2-6.41,15.16-18,26.81-28.41,7.47-6.66,14.81-12.83,19.62-16.81,3.44-2.84,5.6-4.58,5.6-4.58s13-11.21,23.78-14.35,25.57-3.14,25.57-3.14A60.27,60.27,0,0,1,504,191.58a52.36,52.36,0,0,1,15.9,5.95c32.69,18.76,42.94,71,47.22,111,2.22,20.69,2.84,38.06,4.16,45.7C575.79,380.2,583.41,472.61,573.55,482.92Z"/><path class="cls-10" d="M573.55,482.92c-21.27,22.24-89.39,19.59-127.12,9.89a35.68,35.68,0,0,1-9.23-12.13c-5.71-13.17-13.13-22.05-19.1-29.3.89-10.31,2.92-20.68,3.83-29.46a106.4,106.4,0,0,0,.13-14.31c17.7-25.35,20.48-59.83,20.1-111.31-.3-40.49-16.24-59.46-25.27-67,7.47-6.66,14.81-12.83,19.62-16.81,26.82,10.35,41.71,56.17,51.71,42.86,8.63-11.49,10.59-48,15.8-63.8a52.36,52.36,0,0,1,15.9,5.95c11.51,20.85,29.9,63.8,47.22,111,2.22,20.69,2.84,38.06,4.16,45.7C575.79,380.2,583.41,472.61,573.55,482.92Z"/><path class="cls-11" d="M481.14,188.21l-1,.56c-5.35,3-30.31,16.66-29.51,10.65.57-4.27-2.47-8.18-4.77-10.47a23.84,23.84,0,0,0-2.4-2.09s-3.59,4.94-8.08,2.69c-11.54-5.77-18.7-19.64-22.41-29.08-.94-2.39-1.66-4.48-2.17-6.1,5.16-.84,8.58-2.77,10-1.82,2.7,1.79,3.59,6.28,6.28,6.28s0-10.32,4.94-13c4.37-2.39,11.55,14.58,6.29,19.73a2.27,2.27,0,0,0,.37,3.51c17.64,11.71,29.84,7.47,32.81,3.22a6,6,0,0,0,1,.8C474.72,181.48,481.14,188.21,481.14,188.21Z"/><path class="cls-10" d="M481.14,188.21l-1,.56c-2.74.65-6.06,1.24-8.17-.45-10-8-20.06,1.56-26.11.63a23.84,23.84,0,0,0-2.4-2.09c1-5.66-.08-7.45-6.49-13.07s-.69-8.91.21-12-1.35-11.21-3.59-11.21-2.69,11.21-6.28,10.76-5.38-4.48-9.42-4c-1.62.17-3.39,1.58-4.92,3.21-.94-2.39-1.66-4.48-2.17-6.1,5.16-.84,8.58-2.77,10-1.82,2.7,1.79,3.59,6.28,6.28,6.28s0-10.32,4.94-13c4.37-2.39,11.55,14.58,6.29,19.73a2.27,2.27,0,0,0,.37,3.51c17.64,11.71,29.84,7.47,32.81,3.22a6,6,0,0,0,1,.8C474.72,181.48,481.14,188.21,481.14,188.21Z"/><path class="cls-12" d="M488.22,134.61h0c-.67,12.06-11.34,27.55-11.34,31.38,0,5.83,3.59,6.73,3.59,6.73s-4.48,2.61-8,.35a6,6,0,0,1-1-.8c-3,4.25-15.17,8.49-32.81-3.22a2.27,2.27,0,0,1-.37-3.51c5.26-5.15-1.92-22.12-6.29-19.73-4.94,2.69-2.24,13-4.94,13s-3.58-4.49-6.28-6.28c-1.42-1-4.84,1-10,1.82A27.29,27.29,0,0,1,393,151.2c-8.75-4.63-13.22-15.48-12.22-25.91a26,26,0,0,1,11.77-19.85,19.67,19.67,0,0,0,1.8,12.56s.89-23.32,15.25-26.91a13.88,13.88,0,0,0,0,11.21s13.91-20.63,35.89-17c15.95,2.6,24.13,10.84,28.32,18.71a37.87,37.87,0,0,1,4.42,16.73C486.2,123,488.56,128.34,488.22,134.61Z"/><path class="cls-12" d="M442.56,207.94s-1.35-6.28.9-10.31,26-14.81,35.44-15.7,12.11,5.38,12.56,8.52C472.17,190,442.56,207.94,442.56,207.94Z"/><path class="cls-12" d="M366.93,416.74c0,2-.36,3.17-1.12,3.26-5.36.67-18.6,6.15-21.44,2.68-.58-.71-1.35-3.61-2.18-7.82-1.16-5.9-2.47-14.39-3.61-23-2-15.44-3.51-31.36-2.7-33.91a3.24,3.24,0,0,1,.37-.8c2.52-4.06,12.95-2.89,12.95-2.89l.28.43c2.95,4.8,7.4,17.57,11.06,30.56C364.13,397.94,367,410.87,366.93,416.74Z"/><path class="cls-13" d="M342.19,414.86a60.08,60.08,0,0,1-13.12-3.26c-5.18-1.92-21.43-14-38.8-27.54-5.61-4.37-11.34-8.89-16.84-13.26C256.12,357,241,344.72,238.46,343c-5.84-4-14.81-4.94-19.29-13.46s-.45-28.26,0-28.71,9,14.36,10.31,14.36,2.7-13.46,5.39-12.12,9.87,25.57,14.35,28.71c2.27,1.59,25.42,8.31,47.81,14.59,16.22,4.54,32,8.84,39.22,10.79a3.24,3.24,0,0,0-.37.8c-.81,2.55.68,18.47,2.7,33.91C339.72,400.47,341,409,342.19,414.86Z"/><path class="cls-14" d="M342.19,414.86a60.08,60.08,0,0,1-13.12-3.26c-5.18-1.92-21.43-14-38.8-27.54-7.74-17.36,1.2-31.31,6.76-37.72,16.22,4.54,32,8.84,39.22,10.79a3.24,3.24,0,0,0-.37.8C334.61,361.91,339,398.41,342.19,414.86Z"/><path class="cls-10" d="M480.47,172.73s-4.48,2.61-8,.35a6,6,0,0,1-1-.8c-3,4.25-15.17,8.49-32.81-3.22a2.27,2.27,0,0,1-.37-3.51c5.26-5.15-1.92-22.12-6.29-19.73-4.94,2.69-2.24,13-4.94,13s-3.58-4.49-6.28-6.28c-1.42-1-4.84,1-10,1.82A27.29,27.29,0,0,1,393,151.2c-8.75-4.63-13.22-15.48-12.22-25.91.82,2.17,5.51,12.13,23.17,13.63-6.41-3.66-4.12-16.65-4.12-16.65s5.5,7.33,19.85,8.48,19.7-3.13,31.16,3.43,9.62,12.68,9.62,12.68a13.61,13.61,0,0,0-2-12.29c8.7,2.67,8.35,16,8.35,16s3.56-7.64,9.37-9a5.33,5.33,0,0,1,6.87,4.08,21.82,21.82,0,0,0,5.17-11c-.67,12.06-11.34,27.55-11.34,31.38C476.88,171.83,480.47,172.73,480.47,172.73Z"/><path class="cls-15" d="M473.8,104c-7.29-10.44-22.73-14.8-35.88-13.84,11.3,4.2,11.07,11.44,11.07,11.44s-3.36-8.84-15.8-9-18,4.13-19.24,9S416.16,112,416.16,112s-5.35-.45-8.24-8.62,1.67-12.33,1.67-12.33a13.88,13.88,0,0,0,0,11.21s13.91-20.63,35.89-17C461.43,87.86,469.61,96.1,473.8,104Z"/><path class="cls-10" d="M418.08,366.93c-.64-4.79-1.09-7.81-1.09-7.81s-38.2,47.06-50.06,57.62c0,2-.36,3.17-1.12,3.26-5.36.67-18.6,6.15-21.44,2.68-.58-.71-1.35-3.61-2.18-7.82a60.08,60.08,0,0,1-13.12-3.26c-5.18-1.92-21.43-14-38.8-27.54-5.61-4.37-11.34-8.89-16.84-13.26,16.54,5.95,47.89,16.92,65.15,21,4.85,1.15,8.59,1.76,10.58,1.57,1.5-.14,3.65-1.41,6.28-3.55,1.55-1.25,3.26-2.82,5.1-4.63,19.69-19.39,53.63-67.24,53.63-77.49C414.17,295.64,437,325.3,418.08,366.93Z"/><path class="cls-12" d="M452.86,398s-20.13,18.82-34.33,21.8c-4.13,13.29-2.63,22.45,7,22.91s30.29-15.28,32.13-27.8S452.86,398,452.86,398Z"/><path class="cls-12" d="M466.81,263.84s-20.57,30.35-20,7.24c.29-10.64-5.57-21.21-12-29.51a107.67,107.67,0,0,0-15.8-16.4c-2.13-1.82,5.65-13.56,15.38-13.56,12.92,3.8,21.23,18.23,26.2,30.95A126.85,126.85,0,0,1,466.81,263.84Z"/><path class="cls-10" d="M460.64,242.56a126.85,126.85,0,0,1,6.17,21.28s-20.57,30.35-20,7.24c.29-10.64-5.57-21.21-12-29.51A158.59,158.59,0,0,0,460.64,242.56Z"/><path class="cls-12" d="M538.63,246.43s-38.66,19.26-25.86,0c4.54-6.84,5.05-15.6,3.82-24.05-2.23-15.34-10.19-29.66-10.19-29.66-.85-2.69,12.38-4,20.63,1.18a45.24,45.24,0,0,1,9,16.58C541.55,227.83,538.63,246.43,538.63,246.43Z"/><path class="cls-10" d="M538.63,246.43s-38.66,19.26-25.86,0c4.54-6.84,5.05-15.6,3.82-24.05,7.17-4.52,13.78-8.89,19.47-11.9C541.55,227.83,538.63,246.43,538.63,246.43Z"/><path class="cls-7" d="M584.41,429.63a30.59,30.59,0,0,1-.27,3.86c-2.52,17.87-46.27,37.57-62.31,41.37s-21.94-5.06-21.94-5.06c-3.9-.9-7-4.42-9.47-9.61-11.42-24-9.21-83.73-9.21-83.73l17.49-43.2s4.23-.6,10.64-1.3h0c19.91-2.17,60.82-5.25,61.51,6,.34,5.55,2.62,17.74,5.22,31.76C580,391,584.67,416.56,584.41,429.63Z"/><path class="cls-10" d="M576.07,369.74c-3.48,8.25-8.12,15.2-11.86,16.34-7.56,2.29-56.12-.92-61.85-8.94s-2.47-42.29-2.47-42.29l9.45-2.89h0c19.91-2.17,60.82-5.25,61.51,6C571.19,343.53,573.47,355.72,576.07,369.74Z"/><path class="cls-7" d="M493.32,409c-5.84,30.24,6.57,60.82,6.57,60.82s-22.72,2.06-36.13-14.43-10.3-30.24-9.27-41.92c.24-2.72-3.42-10.81-3.74-16.38-.24-4.07,2.57-9.69,2.57-9.69-1.12-12.86-2.72-26.37-3.89-35.79-.24-1.94-.47-3.7-.67-5.25a30.52,30.52,0,0,1,8-24.7c4.29-8.27,16.23-10.13,26.54-8.52,7.92,1.23,14.86,4.52,16.62,8.52.71,1.62,1.15,4.44,1.36,8.15.19,3.36.19,7.45,0,12C500.61,361,497.2,388.89,493.32,409Z"/><path class="cls-7" d="M565.13,366.38c-7.28,4.91-39.86,8.93-51.36,2.06-9.95-5.94-10-15.47-12.5-26.6-.38-1.75-.83-3.54-1.38-5.35a33,33,0,0,0-2.05-5.07c-4.06-8.18-11.09-15.16-14.57-18.3-1.26-1.15-2.06-1.79-2.06-1.79S536.7,270,557.91,275.8c8.74,2.41,14.88,9.92,19.11,18.5a91.83,91.83,0,0,1,8.38,31.54C585.74,334.08,572.41,361.47,565.13,366.38Z"/><path class="cls-10" d="M577,294.3c-20.72,9.33-63.44,29.62-75.77,35.49l-3.41,1.63s-16.93,24-33.73,24.19c-6.62.06-11.36-1.77-14.68-4-.24-1.94-.47-3.7-.67-5.25a30.52,30.52,0,0,1,8-24.7c4.29-8.27,16.23-10.13,26.54-8.52-1.26-1.15-2.06-1.79-2.06-1.79S536.7,270,557.91,275.8C566.65,278.21,572.79,285.72,577,294.3Z"/><path class="cls-5" d="M580.93,271.32c-4.35,8.7-104.45,51.77-110.86,57.49-.9.81-1.8,1.59-2.69,2.33l-1.07.86q-1.33,1.06-2.67,2c-.53.37-1.07.72-1.61,1a26.47,26.47,0,0,1-3.27,1.66h0A16.28,16.28,0,0,1,452,338l-.43,0-.44,0-.42,0a13.31,13.31,0,0,0,3.45-.12c11.49-1.89,18.39-18.08,15.42-36.17a51,51,0,0,0-2.78-10.23c-4.89-12.53-14.22-20.62-23.39-19.11-4.53.74-8.34,3.7-11.12,8.13.07-.35,2.3-10.39,28.18-20.06,26.34-9.86,52.91-18.79,59.32-22,4.87-2.43,18.18-11.2,31.53-12.88a28.23,28.23,0,0,1,12.45,1C580.25,231.92,585.28,262.61,580.93,271.32Z"/><path class="cls-16" d="M454.14,337.77a13.47,13.47,0,0,1-3.47.12l-.43-.05h0c-10.12-1.27-19.6-13.39-22.23-29.4-1.8-11,0-21.24,4.3-28,2.78-4.43,6.59-7.39,11.12-8.13,11.48-1.89,23.2,11.25,26.17,29.34S465.63,335.88,454.14,337.77Z"/><path class="cls-6" d="M464.11,295.83s-8.59-20.21-20.77-16-7,48.1,5.42,48.26,14-33.29,6.19-37.27-16.19,12.37-9.93,22,7-6.41,5-11.14"/><path class="cls-10" d="M580.93,271.32c-4.35,8.7-104.45,51.77-110.86,57.49-.9.81-1.8,1.59-2.69,2.33l-1.07.86c-.89.71-1.78,1.38-2.67,2-.53.37-1.07.72-1.61,1a25.78,25.78,0,0,1-3.27,1.66h0A16.25,16.25,0,0,1,452,338l-.43,0-.44,0-.42,0a13.31,13.31,0,0,0,3.45-.12c11.49-1.89,18.39-18.08,15.42-36.17a51,51,0,0,0-2.78-10.23c5.85,4.28,13.46,8,22.07,7.89,18.88-.29,77.24-42.49,62.45-73.81a28.23,28.23,0,0,1,12.45,1C580.25,231.92,585.28,262.61,580.93,271.32Z"/><path class="cls-12" d="M467.42,257.74s30.22,6.7,28.34,57.9c6.83,3.32,18.93-2.67,19.64-9.3s-.41-40.74-31.46-54.6C474.19,248.18,467.42,257.74,467.42,257.74Z"/><path class="cls-12" d="M513.77,239.86s29,6.43,27.17,55.53c6.56,3.19,18.16-2.56,18.84-8.91s-.4-39.08-30.18-52.37C520.25,230.7,513.77,239.86,513.77,239.86Z"/><path class="cls-17" d="M506.42,271.17S490.91,274,489.77,279s21-3.29,20.27-5.24S508.47,270.74,506.42,271.17Z"/><path class="cls-17" d="M552.23,255.47s-15.51,2.83-16.65,7.79,21-3.29,20.27-5.24S554.28,255,552.23,255.47Z"/><path class="cls-7" d="M499.89,469.8c.15,1.72-11.52,6.05-23.39,4.86-8.4-.84-16.91-4.44-21.4-13.68-8.88-18.27-13.08-51.31-7.19-66.51,1.29-3.34,3.08-5.82,5.41-7.09,0,0-9.9,33.19,39.27,26a72.53,72.53,0,0,0-.54,11.63C492.6,445.27,499.67,467.34,499.89,469.8Z"/><path class="cls-12" d="M533.31,431.12s2.73,27.57,5.93,28.26,43.07-15.58,43.18-27.26-1.95-21.07-6.76-24.51S532.42,423.42,533.31,431.12Z"/><circle class="cls-18" cx="556.96" cy="355.61" r="3.97"/><path class="cls-6" d="M473.27,328.13s-8,40.16-3,66.27"/><path class="cls-10" d="M499.89,469.8c.15,1.72-11.52,6.05-23.39,4.86,14.76-8.41,7.09-48.05,4.71-50.84-2.9-3.41-19.39-1.17-28.09-12a25,25,0,0,1-5.21-17.34c1.29-3.34,3.08-5.82,5.41-7.09,0,0-9.9,33.19,39.27,26C489.54,435.78,499.63,466.86,499.89,469.8Z"/><path class="cls-10" d="M584.41,429.63a30.59,30.59,0,0,1-.27,3.86c-2.52,17.87-46.27,37.57-62.31,41.37s-21.94-5.06-21.94-5.06c-.22-2.46-7.29-24.53-7.84-44.77l.54-11.63s9.09,44.07,18.25,49.11,18.48,2.29,17.87-12.06,3.36-24.18,11.07-27.44C547.32,419.82,569.49,452.77,584.41,429.63Z"/><path class="cls-9" d="M610.86,474.57s18.79-65.44,66.74-87.77c-3.21,13.71-1.15,94.43-26.8,113.17H594.22Z"/><path class="cls-6" d="M677.6,386.8s-24.28,23.87-33.68,56.59S626.74,494.58,623.54,500"/><path class="cls-6" d="M613.59,466.53s14.54,10.71,15.22,22.08c26.57-12.51,36.12-11,36.12-11"/><path class="cls-6" d="M623.54,442.67s13.34,8.32,14.8,19.16c0,0,21-10.44,32.9-10.8"/><path class="cls-6" d="M639.26,418.15s8.56,3.34,9.36,12.09a73.45,73.45,0,0,1,25.72-5"/><path class="cls-5" d="M558.71,500s-.23-40.11,54.06-57.3c7.79,32.06-14.43,57.33-14.43,57.33Z"/><path class="cls-6" d="M612.77,442.67s-34.68,45-34.41,57.33"/><path class="cls-6" d="M564.61,479.22s13.47,3.7,15.64,13.57a59,59,0,0,1,24.47-2.05"/><path class="cls-6" d="M578,461.83s10.86,6.37,11.53,14c16.94-5.78,22.6-2.67,22.6-2.67"/><path class="cls-6" d="M593.08,451s5.68,4.74,6.39,9.87a44.5,44.5,0,0,1,14.89-1.5"/><path class="cls-9" d="M252.34,463.44s11-113.67-119.91-95.11C134.49,421.58,191.18,462.35,252.34,463.44Z"/><path class="cls-6" d="M132.43,368.33s46.73,57.35,118.88,92.52"/><path class="cls-6" d="M144.45,407.2l25.72-1s.13-26.46,6.05-39"/><path class="cls-6" d="M164.59,430.83l34-2.63s-2-45.45,2.32-55.13"/><path class="cls-6" d="M191.87,448.86l30.38-4.05s.95-47.57,7.11-53"/><path class="cls-7" d="M252.34,463.44s-29.43-25.59,0-70.49C275.36,415.4,280.86,451.7,252.34,463.44Z"/><path class="cls-6" d="M252.34,393s12,19.81,0,70.49"/><path class="cls-6" d="M242.27,413.3s12.4,5.08,15.42,8.4c7.94-5.5,9.78-6.84,9.78-6.84"/><path class="cls-6" d="M239.35,428.2s15.78,6.29,17.54,9.17c8.05-5.94,14.84-6.74,14.84-6.74"/><path class="cls-6" d="M240.45,441.82s13.17,6.39,14.42,9.57a24.08,24.08,0,0,1,15.38-6.82"/><text class="cls-19" transform="matrix(0.82, -0.16, 0.19, 0.98, 218.31, 287.42)"><tspan class="cls-20">Y</tspan><tspan class="cls-21" x="12.09" y="0">our d</tspan><tspan class="cls-22" x="69.37" y="0">a</tspan><tspan x="81.8" y="0">ta not </tspan><tspan class="cls-23" x="151.27" y="0">f</tspan><tspan x="158.52" y="0">ound </tspan></text><text class="cls-24" transform="matrix(0.85, -0.19, 0.22, 0.97, 211.62, 250.08)"><tspan class="cls-25">O</tspan><tspan x="28.68" y="0">ops !</tspan></text></g></g></svg>