<?xml version="1.0" encoding="utf-8"?>
<!-- Generator: Adobe Illustrator 24.2.3, SVG Export Plug-In . SVG Version: 6.00 Build 0)  -->
<svg version="1.1" id="Layer_1" xmlns="http://www.w3.org/2000/svg" xmlns:xlink="http://www.w3.org/1999/xlink" x="0px" y="0px"
	 viewBox="0 0 300 300" style="enable-background:new 0 0 300 300;" xml:space="preserve">
<style type="text/css">
	.st0{fill:#E9FDFF;}
	.st1{opacity:0.57;}
	.st2{fill:url(#SVGID_1_);}
	.st3{fill:#CECECE;}
	.st4{fill:url(#SVGID_2_);}
	.st5{fill:url(#SVGID_3_);}
	.st6{fill:url(#SVGID_4_);}
	.st7{fill:#F9FBFC;}
	.st8{fill:#FFFFFF;}
	.st9{fill:url(#SVGID_5_);}
	.st10{fill:#CFE3FF;}
	.st11{fill:url(#SVGID_6_);}
	.st12{fill:url(#SVGID_7_);}
	.st13{fill:#FF9D6F;}
	.st14{opacity:0.21;fill:url(#SVGID_8_);enable-background:new    ;}
	.st15{fill:#113C7A;}
	.st16{fill:url(#SVGID_9_);}
	.st17{fill:#FF7C40;}
	.st18{fill:url(#SVGID_10_);}
	.st19{fill:url(#SVGID_11_);}
	.st20{fill:#843837;}
	.st21{fill:#CFDAE4;}
	.st22{opacity:0.67;}
	.st23{fill:#E6FCFF;}
	.st24{opacity:0.53;}
	.st25{fill:#ECFDFF;}
	.st26{fill:url(#SVGID_12_);}
	.st27{opacity:0.46;}
	.st28{fill:url(#SVGID_13_);}
	.st29{opacity:0.21;}
	.st30{fill:url(#SVGID_14_);}
	.st31{fill:#5155D4;}
	.st32{fill:#343996;}
	.st33{fill:#FF3D9D;}
</style>
<g>
	<g>
		<path class="st0" d="M236.42,236.52c1.13,0.7,2.05,2.41,2.04,3.81c0,1.41-0.93,1.97-2.06,1.27l-18.64-11.59
			c-1.13-0.7-2.05-2.41-2.04-3.82c0-1.4,0.93-1.97,2.06-1.26L236.42,236.52z"/>
	</g>
	<g class="st1">
		<linearGradient id="SVGID_1_" gradientUnits="userSpaceOnUse" x1="40.4211" y1="157.9264" x2="11.0354" y2="107.0288">
			<stop  offset="0" style="stop-color:#2196F3"/>
			<stop  offset="0.5" style="stop-color:#3F51B5"/>
			<stop  offset="1" style="stop-color:#021B79"/>
		</linearGradient>
		<path class="st2" d="M8.32,110c-1.24,0.77-2.25,2.66-2.25,4.2l0.15,57.07c0.01,3.64,2.41,5.13,5.34,3.31l31.57-19.63
			c1.24-0.77,2.25-2.66,2.25-4.2l-0.15-57.07c-0.01-3.64-2.41-5.13-5.33-3.31L8.32,110z"/>
	</g>
	<g>
		<g>
			<g>
				<path class="st3" d="M13.17,130.68c-0.37,0.23-0.67,0.79-0.67,1.24l0.01,3.03c0,0.46,0.3,0.64,0.67,0.41l25.74-16
					c0.37-0.23,0.67-0.79,0.67-1.25l-0.01-3.03c0-0.46-0.3-0.64-0.67-0.41L13.17,130.68z"/>
			</g>
			<g>
				<path class="st3" d="M13.19,137.28c-0.37,0.23-0.67,0.79-0.67,1.25l0.01,3.03c0,0.46,0.3,0.64,0.67,0.41l25.74-16
					c0.37-0.23,0.67-0.79,0.67-1.24l-0.01-3.03c0-0.46-0.3-0.64-0.67-0.41L13.19,137.28z"/>
			</g>
		</g>
		<path class="st3" d="M23.23,142.19c-0.88,0.55-1.59,1.87-1.58,2.96l0,0.7c0,1.09,0.72,1.52,1.59,0.98l8.33-5.18
			c0.88-0.55,1.59-1.87,1.59-2.96l0-0.7c0-1.08-0.72-1.52-1.6-0.98L23.23,142.19z"/>
	</g>
	
		<linearGradient id="SVGID_2_" gradientUnits="userSpaceOnUse" x1="-1647.2952" y1="129.444" x2="-1634.1074" y2="129.444" gradientTransform="matrix(-1 0 0 -1 -1374.8463 302)">
		<stop  offset="0" style="stop-color:#5155D4"/>
		<stop  offset="1" style="stop-color:#45F7FF"/>
	</linearGradient>
	<path class="st4" d="M272.44,121.03c0-0.14-0.01-0.28-0.02-0.41c-0.01-0.14-0.02-0.28-0.03-0.42c-0.01-0.14-0.03-0.28-0.04-0.42
		c-0.02-0.14-0.04-0.29-0.06-0.43c0,0,0-0.01,0-0.01c0,0,0-0.01,0-0.01c-0.02-0.14-0.04-0.27-0.07-0.41
		c-0.03-0.15-0.05-0.3-0.08-0.45c-0.03-0.15-0.06-0.3-0.1-0.45c-0.04-0.15-0.07-0.3-0.11-0.45c-0.03-0.12-0.06-0.23-0.1-0.35
		c0-0.01-0.01-0.02-0.01-0.03c-0.01-0.02-0.01-0.05-0.02-0.07c-0.04-0.15-0.09-0.29-0.13-0.44c-0.05-0.14-0.09-0.29-0.14-0.44
		c-0.05-0.14-0.1-0.28-0.15-0.42s-0.1-0.28-0.15-0.42c-0.04-0.11-0.08-0.21-0.13-0.32c0-0.01-0.01-0.01-0.01-0.02
		c-0.01-0.02-0.02-0.05-0.03-0.07c-0.06-0.14-0.11-0.28-0.17-0.41c-0.07-0.15-0.13-0.3-0.2-0.45c-0.08-0.17-0.16-0.34-0.25-0.51
		c-0.09-0.18-0.19-0.36-0.28-0.54c-0.02-0.03-0.03-0.06-0.05-0.1c-0.02-0.04-0.04-0.08-0.06-0.11c-0.19-0.34-0.38-0.68-0.59-1.01
		c-0.16-0.26-0.33-0.52-0.5-0.77c-0.12-0.17-0.23-0.33-0.35-0.5c-0.1-0.14-0.2-0.27-0.31-0.41c-0.1-0.13-0.2-0.26-0.31-0.39
		c-0.1-0.13-0.2-0.25-0.31-0.37c-0.02-0.02-0.04-0.05-0.06-0.07c-0.01-0.01-0.02-0.02-0.02-0.03c-0.08-0.09-0.16-0.18-0.24-0.27
		c-0.11-0.12-0.22-0.24-0.33-0.36c-0.11-0.12-0.23-0.24-0.35-0.35c-0.12-0.11-0.23-0.22-0.35-0.33c-0.06-0.05-0.12-0.11-0.18-0.16
		c-0.01-0.01-0.03-0.02-0.04-0.04c-0.04-0.04-0.09-0.08-0.13-0.12c-0.11-0.1-0.23-0.19-0.35-0.29c-0.11-0.09-0.23-0.18-0.35-0.26
		c-0.11-0.08-0.23-0.16-0.34-0.24c-0.11-0.08-0.22-0.15-0.34-0.22c-0.03-0.02-0.05-0.03-0.08-0.05l-5.27,3.3
		c0.54,0.34,1.07,0.74,1.58,1.18c0.01,0.01,0.03,0.02,0.04,0.04c0.51,0.44,0.99,0.93,1.46,1.47c0.01,0.01,0.02,0.02,0.02,0.03
		c0.94,1.07,1.78,2.31,2.49,3.63c0.02,0.03,0.03,0.06,0.05,0.1c0.34,0.65,0.66,1.31,0.93,1.99c0,0.01,0.01,0.02,0.01,0.02
		c0.28,0.69,0.52,1.39,0.72,2.1c0,0.01,0.01,0.02,0.01,0.03c0.2,0.71,0.35,1.41,0.45,2.11c0,0,0,0.01,0,0.01
		c0.1,0.71,0.16,1.4,0.16,2.08l-0.29,108.25c0,0.66-0.06,1.28-0.16,1.84c0,0.02-0.01,0.04-0.01,0.05c-0.11,0.55-0.26,1.06-0.45,1.51
		c0,0.01-0.01,0.02-0.01,0.03c-0.16,0.38-0.38,0.69-0.6,0.99c-0.07,0.1-0.14,0.2-0.22,0.29c-0.26,0.3-0.55,0.57-0.87,0.77l5.27-3.3
		c0.32-0.2,0.61-0.47,0.87-0.77c0.08-0.09,0.15-0.19,0.22-0.29c0.1-0.13,0.2-0.24,0.29-0.38c0.11-0.18,0.21-0.38,0.3-0.59
		c0-0.01,0.01-0.02,0.01-0.03c0-0.01,0.01-0.02,0.01-0.03c0.06-0.14,0.12-0.28,0.17-0.43c0.05-0.15,0.1-0.3,0.14-0.45
		c0.04-0.14,0.07-0.29,0.11-0.44c0.01-0.06,0.02-0.13,0.04-0.19c0-0.02,0.01-0.04,0.01-0.05c0.01-0.06,0.02-0.12,0.03-0.18
		c0.02-0.13,0.04-0.27,0.06-0.41c0.02-0.13,0.03-0.27,0.04-0.41c0.01-0.13,0.02-0.27,0.02-0.4c0.01-0.14,0.01-0.27,0.01-0.41
		c0-0.01,0-0.02,0-0.02l0.29-108.25C272.45,121.29,272.45,121.16,272.44,121.03z"/>
	<g>
		
			<linearGradient id="SVGID_3_" gradientUnits="userSpaceOnUse" x1="-1582.689" y1="62.9506" x2="-1548.3193" y2="318.3789" gradientTransform="matrix(-1 0 0 -1 -1374.8463 302)">
			<stop  offset="0" style="stop-color:#1AE5FF"/>
			<stop  offset="0.2589" style="stop-color:#64E8F9"/>
			<stop  offset="0.7043" style="stop-color:#EAEEEE"/>
		</linearGradient>
		<path class="st5" d="M117.4,15.18c-0.08-0.05-0.17-0.1-0.25-0.15c-0.11-0.06-0.22-0.12-0.33-0.18c-0.11-0.06-0.21-0.11-0.32-0.16
			c-0.11-0.05-0.21-0.1-0.32-0.15c-0.11-0.05-0.21-0.09-0.32-0.13c-0.02-0.01-0.04-0.01-0.06-0.02c-0.01,0-0.02-0.01-0.02-0.01
			c-0.08-0.03-0.16-0.06-0.23-0.08c-0.11-0.04-0.22-0.07-0.33-0.1c-0.11-0.03-0.22-0.06-0.33-0.08c-0.12-0.02-0.23-0.05-0.35-0.06
			c-0.08-0.01-0.16-0.02-0.23-0.03c-0.01,0-0.02,0-0.04,0c-0.03,0-0.06-0.01-0.08-0.01C114.06,14,113.94,14,113.82,14
			c-0.14,0-0.28,0.01-0.41,0.02c-0.16,0.02-0.31,0.04-0.46,0.07c0,0-0.01,0-0.01,0c0,0-0.01,0-0.01,0
			c-0.18,0.04-0.36,0.09-0.53,0.16c-0.22,0.09-0.44,0.19-0.64,0.32l-5.27,3.3c0.36-0.22,0.75-0.38,1.17-0.48c0.01,0,0.01,0,0.02,0
			c0.42-0.09,0.87-0.12,1.34-0.07c0.01,0,0.02,0,0.04,0c0.47,0.05,0.96,0.16,1.47,0.34c0.01,0,0.01,0,0.02,0.01
			c0.52,0.19,1.05,0.45,1.6,0.8l144,89.76l5.27-3.3L117.4,15.18z"/>
		<g>
			
				<linearGradient id="SVGID_4_" gradientUnits="userSpaceOnUse" x1="103.877" y1="173.8333" x2="267.182" y2="173.8333" gradientTransform="matrix(1 0 0 -1 0 302)">
				<stop  offset="0" style="stop-color:#2196F3"/>
				<stop  offset="0.5" style="stop-color:#3F51B5"/>
				<stop  offset="1" style="stop-color:#021B79"/>
			</linearGradient>
			<path class="st6" d="M259.26,109.95c4.39,2.73,7.93,9.34,7.92,14.77l-0.29,108.26c-0.01,5.43-3.58,7.62-7.97,4.89L111.8,146.39
				c-4.39-2.73-7.93-9.34-7.92-14.77l0.29-108.25c0.01-5.43,3.58-7.62,7.97-4.89L259.26,109.95z"/>
		</g>
	</g>
	<g>
		<path class="st7" d="M250.18,109.71c4.04,2.51,7.29,8.58,7.28,13.58l-0.26,99.52c-0.01,4.99-3.29,7.01-7.33,4.5l-128.33-79.73
			c-4.04-2.51-7.29-8.58-7.28-13.58l0.26-99.52c0.01-4.99,3.29-7.01,7.33-4.5L250.18,109.71z"/>
	</g>
	<path class="st7" d="M261.59,196.2L261.59,196.2c-0.59,0-1.07-0.52-1.07-1.16v-34.69c0-0.64,0.48-1.16,1.07-1.16l0,0
		c0.59,0,1.07,0.52,1.07,1.16v34.69C262.66,195.68,262.18,196.2,261.59,196.2z"/>
	<g>
		<path class="st8" d="M108.89,85.16c1.25,0.78,2.27,2.67,2.27,4.23c0,1.55-1.03,2.18-2.28,1.4c-1.25-0.78-2.27-2.67-2.27-4.23
			C106.61,85.01,107.63,84.38,108.89,85.16z"/>
	</g>
	<g>
		
			<linearGradient id="SVGID_5_" gradientUnits="userSpaceOnUse" x1="182.0368" y1="245.5031" x2="191.0234" y2="131.1282" gradientTransform="matrix(1 0 0 -1 0 302)">
			<stop  offset="0" style="stop-color:#5155D4"/>
			<stop  offset="1" style="stop-color:#45F7FF"/>
		</linearGradient>
		<path class="st9" d="M197.12,99.85c0.4,1.43,0.69,2.86,0.85,4.27c0.1,0.84,0.14,1.68,0.14,2.5c0,0.25-0.01,0.49-0.02,0.73
			c0,0.04,0,0.07,0,0.11c-0.01,0.23-0.03,0.45-0.04,0.67c0,0.04-0.01,0.08-0.01,0.13c-0.02,0.22-0.04,0.44-0.07,0.65
			c-0.04,0.29-0.07,0.49-0.11,0.69c-0.05,0.26-0.09,0.46-0.14,0.66c-0.01,0.03-0.02,0.07-0.02,0.1c-0.05,0.19-0.1,0.38-0.15,0.56
			c-0.01,0.03-0.02,0.07-0.03,0.1c-0.06,0.18-0.12,0.36-0.18,0.54c-0.08,0.22-0.15,0.38-0.22,0.54c-0.1,0.23-0.18,0.38-0.25,0.54
			c-0.01,0.03-0.03,0.06-0.04,0.09c-0.08,0.15-0.16,0.3-0.25,0.44c-0.01,0.02-0.03,0.04-0.04,0.07c-0.09,0.15-0.18,0.29-0.28,0.43
			c-0.1,0.14-0.2,0.27-0.31,0.4c-0.01,0.02-0.03,0.04-0.04,0.05c-0.1,0.12-0.21,0.24-0.31,0.35c-0.02,0.02-0.04,0.04-0.06,0.06
			c-0.11,0.11-0.22,0.21-0.33,0.31c-0.02,0.01-0.04,0.03-0.05,0.04c-0.11,0.1-0.23,0.19-0.35,0.28c-0.15,0.11-0.27,0.19-0.4,0.27
			c-0.02,0.01-0.05,0.03-0.07,0.04c-0.12,0.08-0.25,0.15-0.38,0.21c-0.03,0.01-0.05,0.03-0.08,0.04c-0.13,0.07-0.27,0.13-0.41,0.18
			c-0.11,0.04-0.19,0.07-0.26,0.09c-0.04-5.28-3.49-11.66-7.74-14.3c-4.29-2.67-7.78-0.53-7.8,4.78c0.01,0.01,0.12,0.22,0.35,0.6
			c-0.1-0.15-0.2-0.3-0.3-0.46c-0.19-0.3-0.32-0.51-0.45-0.72c-0.02-0.04-0.05-0.08-0.07-0.11c-0.14-0.22-0.27-0.45-0.4-0.68
			c-0.03-0.05-0.06-0.1-0.08-0.15c-0.13-0.24-0.26-0.47-0.39-0.71c-0.14-0.26-0.26-0.5-0.38-0.73c-0.02-0.05-0.05-0.09-0.07-0.14
			c-0.12-0.24-0.24-0.48-0.35-0.72c-0.02-0.04-0.04-0.09-0.06-0.13c-0.11-0.23-0.21-0.46-0.32-0.7c-0.14-0.31-0.24-0.56-0.34-0.81
			c-0.02-0.05-0.04-0.1-0.06-0.15c-0.1-0.25-0.2-0.5-0.29-0.75c-0.12-0.32-0.21-0.56-0.29-0.8c-0.01-0.04-0.03-0.08-0.04-0.12
			c-0.09-0.25-0.17-0.5-0.25-0.75c-0.02-0.05-0.03-0.1-0.05-0.15c-0.16-0.51-0.3-1.03-0.43-1.54c-0.01-0.05-0.03-0.1-0.04-0.15
			c-0.06-0.25-0.12-0.5-0.17-0.75c-0.01-0.04-0.02-0.09-0.03-0.13c-0.05-0.24-0.1-0.47-0.14-0.71c-0.06-0.33-0.1-0.58-0.14-0.83
			c-0.01-0.05-0.02-0.11-0.02-0.16c-0.04-0.25-0.07-0.5-0.1-0.75c-0.03-0.32-0.06-0.55-0.07-0.78c0-0.04-0.01-0.08-0.01-0.13
			c-0.02-0.24-0.03-0.48-0.04-0.72c0-0.05,0-0.1-0.01-0.15c-0.01-0.25-0.01-0.49-0.01-0.74c0-0.82,0.05-1.59,0.15-2.31
			c0.16-1.21,0.46-2.28,0.87-3.21c0.08-0.19,0.17-0.37,0.26-0.54c2.07-4.01,6.46-4.94,11.52-1.79c4.54,2.82,8.52,8.25,10.77,14.08
			c0.15,0.38,0.29,0.77,0.42,1.15C196.78,98.71,196.96,99.28,197.12,99.85z M185.63,100.25c2.62,1.63,4.74,0.32,4.75-2.92
			c0.01-3.24-2.1-7.18-4.72-8.81c-2.61-1.63-4.74-0.32-4.75,2.92C180.9,94.67,183.01,98.62,185.63,100.25"/>
		<g>
			<g>
				<path class="st10" d="M217.11,143.22c0.98,0.61,1.78,2.09,1.77,3.3l-0.02,8.04c0,1.22-0.8,1.71-1.79,1.1l-68.31-42.47
					c-0.98-0.61-1.78-2.09-1.77-3.31l0.02-8.04c0-1.21,0.8-1.7,1.79-1.09L217.11,143.22z"/>
			</g>
			<g>
				<path class="st10" d="M217.06,160.73c0.98,0.61,1.78,2.09,1.77,3.31l-0.02,8.04c0,1.22-0.8,1.7-1.79,1.09l-68.31-42.47
					c-0.98-0.61-1.78-2.08-1.77-3.3l0.02-8.04c0-1.22,0.8-1.71,1.79-1.1L217.06,160.73z"/>
			</g>
		</g>
	</g>
	
		<linearGradient id="SVGID_6_" gradientUnits="userSpaceOnUse" x1="177.8865" y1="158.3199" x2="177.8865" y2="118.3585" gradientTransform="matrix(1 0 0 -1 0 302)">
		<stop  offset="0" style="stop-color:#2196F3"/>
		<stop  offset="0.5" style="stop-color:#3F51B5"/>
		<stop  offset="1" style="stop-color:#021B79"/>
	</linearGradient>
	<path class="st11" d="M186.59,164.24c1.84,1.14,3.31,3.91,3.31,6.17l0,1.45c-0.01,2.27-1.49,3.18-3.33,2.04l-17.38-10.81
		c-1.84-1.14-3.32-3.9-3.31-6.17l0-1.45c0.01-2.26,1.5-3.18,3.34-2.04L186.59,164.24z"/>
	<g>
		
			<linearGradient id="SVGID_7_" gradientUnits="userSpaceOnUse" x1="-1172.578" y1="116.3445" x2="-1148.8354" y2="137.039" gradientTransform="matrix(-1 0 0 -1 -1038.9006 302)">
			<stop  offset="0" style="stop-color:#1AE5FF"/>
			<stop  offset="0.2589" style="stop-color:#64E8F9"/>
			<stop  offset="0.7043" style="stop-color:#EAEEEE"/>
		</linearGradient>
		<path class="st12" d="M123.57,163.2c0,0-5.89,3.66-6.8,20.39c0.75,3.09,5.28,4.71,8.75,2.27
			C128.99,183.43,125.39,166.05,123.57,163.2z"/>
		<path class="st13" d="M153.54,181.27c0,0,13.5-6.48,15.32-7.57s3.18-5.13,3.86-5.99c0.68-0.85,3.74-2.81,3.63-1.96
			c-0.11,0.85-1.7,2.44-1.7,2.44s1.13,2.08,1.36,3.42c0.23,1.34-1.48,4.03-2.38,4.76c-0.91,0.73-3.06,0.98-3.06,0.98
			s-11,7.94-12.82,8.06C155.92,185.55,153.31,184.45,153.54,181.27z"/>
		
			<linearGradient id="SVGID_8_" gradientUnits="userSpaceOnUse" x1="15.9048" y1="37.778" x2="70.4788" y2="37.778" gradientTransform="matrix(1 0 0 -1 94.1842 302)">
			<stop  offset="0" style="stop-color:#5155D4"/>
			<stop  offset="1" style="stop-color:#45F7FF"/>
		</linearGradient>
		<ellipse class="st14" cx="137.38" cy="264.22" rx="27.29" ry="17.46"/>
		<path class="st15" d="M126.06,260.46c0,0-0.35,2.77,0.12,3.9c0.47,1.01,2.34,1.76,3.62,0.76s3.51-3.52,3.51-3.52
			s3.74-2.14,4.09-3.27c0.35-1.13-0.93-2.14-1.99-1.89c-1.05,0.25-4.09,2.27-5.49,2.27C128.52,258.7,126.53,259.08,126.06,260.46z"
			/>
		<path class="st15" d="M122.21,201.52c0,0,3.27,58.13,3.68,59.82c0.41,1.68,4.65,2.65,5.44-0.02c0.5-1.7,1.73-55.49,1.73-55.49
			L122.21,201.52z"/>
		<path class="st15" d="M136.88,263.92c-0.18,0.17-0.29,0.42-0.29,0.68c-0.01,0.8,0.03,2.58,0.45,3.27
			c0.55,0.91,2.26,1.87,4.06,0.82c1.51-0.89,6.17-4.64,7.12-5.47c0.57-0.5,0.83-1.13,0.94-1.6c0.1-0.43-0.1-0.87-0.48-1.05
			c-0.66-0.32-1.79-0.71-2.8-0.35c-1.54,0.56-3.49,2.36-5.59,2.26C138.71,262.41,137.42,263.42,136.88,263.92z"/>
		<path class="st15" d="M144.1,202.15c-0.24-2.42-2.92-3.2-5.39-2.38c-4.72-0.27-12.02-0.06-12.28,3.89
			c-0.38,5.84,2.16,10,4.61,12.84c1.81,2.09,3.02,6.1,3.52,8.05c0.43,15.42,1.38,37.16,1.97,39.24c0.95,3.35,5.65,3.2,5.86-0.06
			C143.35,252.69,144.1,202.15,144.1,202.15z"/>
		
			<linearGradient id="SVGID_9_" gradientUnits="userSpaceOnUse" x1="-1169.0457" y1="60.9251" x2="-1174.4617" y2="174.0096" gradientTransform="matrix(-1 0 0 -1 -1038.9006 302)">
			<stop  offset="0" style="stop-color:#1AE5FF"/>
			<stop  offset="0.2589" style="stop-color:#64E8F9"/>
			<stop  offset="0.7043" style="stop-color:#EAEEEE"/>
		</linearGradient>
		<path class="st16" d="M144.11,203.97c-0.55,2.98-8.45,4.47-13.07,3.68c-4.62-0.8-9.59-3.23-9.42-9c0,0-0.7-23.03-0.7-27.56
			s2.65-7.88,2.65-7.88s2.58-3.18,10.71-1.39c0,0,6.62,1.55,9.67,6.82c0,0,2.1,5.79,1.4,17.87
			C144.64,198.59,144.11,203.97,144.11,203.97z"/>
		<path class="st17" d="M127.93,155.42c0,0,0.7,4.4,0,6.42c-0.12,1.01,3.97,4.4,7.6,3.52c2.1-0.5,1.99-1.64,1.99-1.64
			s-1.75-3.15-1.52-6.17C136.23,154.54,130.39,154.79,127.93,155.42z"/>
		<g>
			<ellipse class="st13" cx="131.96" cy="146.55" rx="9.64" ry="10.38"/>
			<path class="st13" d="M141.61,147.24c0,0,0.12,10.4-1.99,12.5s-5.33-1.96-10.5-3.27c-5.16-1.43,4.19-12.24,4.19-12.24
				L141.61,147.24z"/>
		</g>
		<g>
			
				<linearGradient id="SVGID_10_" gradientUnits="userSpaceOnUse" x1="-1184.876" y1="62.861" x2="-1190.3008" y2="176.1287" gradientTransform="matrix(-1 0 0 -1 -1038.9006 302)">
				<stop  offset="0" style="stop-color:#1AE5FF"/>
				<stop  offset="0.2589" style="stop-color:#64E8F9"/>
				<stop  offset="0.7043" style="stop-color:#EAEEEE"/>
			</linearGradient>
			<path class="st18" d="M140.83,166.21c0,0,2.11-0.65,4.53,3.09c2.41,3.74,5.88,8.61,7.54,9.42c1.66,0.81,3.92-0.81,4.83-0.81
				s3.32,4.55,2.41,6.82s-6.79,3.41-8.3,3.41s-11.31-6.34-12.67-9.91C137.81,174.66,135.7,166.37,140.83,166.21z"/>
			
				<linearGradient id="SVGID_11_" gradientUnits="userSpaceOnUse" x1="-1196.52" y1="103.78" x2="-1199.3363" y2="125.2276" gradientTransform="matrix(-1 0 0 -1 -1038.9006 302)">
				<stop  offset="0" style="stop-color:#1AE5FF"/>
				<stop  offset="0.2589" style="stop-color:#64E8F9"/>
				<stop  offset="0.7043" style="stop-color:#EAEEEE"/>
			</linearGradient>
			<path class="st19" d="M156.37,178.4c0,0,0.6-1.79,2.71-1.95c2.11-0.16,4.53,4.22,4.38,6.66c-0.15,2.44-3.47,3.74-4.22,3.09
				C158.48,185.54,159.99,183.92,156.37,178.4z"/>
		</g>
		<path class="st20" d="M137.73,137.78c0,0,3.47,0.81,4.53,6.5c-0.45,2.44-3.62,0.49-4.83,3.74s-1.96,4.22-1.96,4.22l-0.75-0.32
			c0,0,0-2.6-1.06-2.6s-1.36,3.09-0.75,4.39c0.6,1.3,1.96,1.95,1.96,1.95s-1.51,2.76-2.26,3.09c-0.75,0.32-3.47-0.32-4.53-0.81
			s-3.02-2.76-4.53-5.36c-1.51-2.6-2.87-7.15-1.96-10.23c0.9-3.09,3.02-3.9,3.02-3.9s1.21-1.79,3.32-2.6
			C130.04,135.02,133.96,134.7,137.73,137.78z"/>
		<path class="st21" d="M139.39,163.99l-2.51-1.52c0,0-6.44-0.65-8.75-2.27l-1.21,1.84c0,0,1.61,3.36,5.73,3.79s6.03-1.3,6.03-1.3
			L139.39,163.99z"/>
	</g>
	<g class="st22">
		<g>
			<path class="st23" d="M252.83,81.64l-0.01,3.04c-0.01,1.79-1.81,2.91-3.25,2.01l-13.33-8.33c-0.67-0.42-1.08-1.19-1.08-2.02
				l0.01-3.04c0.01-1.79,1.81-2.91,3.25-2.01l13.33,8.33C252.42,80.03,252.83,80.8,252.83,81.64z"/>
		</g>
		<g>
			<path class="st23" d="M295,122.98l-0.01,3.05c-0.01,1.79-1.81,2.91-3.25,2.01L236.2,93.51c-0.67-0.42-1.09-1.19-1.08-2.03
				l0.01-3.05c0.01-1.79,1.81-2.91,3.25-2.01l55.54,34.53C294.59,121.38,295,122.15,295,122.98z"/>
		</g>
		<g class="st24">
			<path class="st23" d="M272.02,139.05l-0.01,3.05c-0.01,1.79-1.81,2.91-3.25,2.01l-32.64-20.29c-0.67-0.42-1.09-1.19-1.08-2.03
				l0.01-3.05c0.01-1.79,1.81-2.91,3.25-2.01l32.64,20.29C271.61,137.44,272.02,138.22,272.02,139.05z"/>
		</g>
		<g>
			<path class="st23" d="M286.35,132.78l-0.01,3.05c-0.01,1.79-1.81,2.91-3.25,2.01l-46.93-29.18c-0.67-0.42-1.08-1.19-1.08-2.03
				l0.01-3.05c0.01-1.79,1.81-2.91,3.25-2.01l46.93,29.18C285.94,131.17,286.35,131.95,286.35,132.78z"/>
		</g>
	</g>
	<g class="st22">
		<g>
			<path class="st25" d="M30.03,59.94l0,1.57c0,0.92,0.93,1.5,1.67,1.03l6.86-4.28c0.34-0.22,0.56-0.61,0.56-1.04l0-1.57
				c0-0.92-0.93-1.5-1.67-1.03l-6.86,4.28C30.24,59.11,30.03,59.51,30.03,59.94z"/>
		</g>
		<g>
			<path class="st25" d="M8.34,81.21l0,1.57c0,0.92,0.93,1.5,1.67,1.04l28.58-17.77c0.35-0.21,0.56-0.61,0.56-1.04l0-1.57
				c0-0.92-0.93-1.5-1.67-1.03L8.89,80.17C8.55,80.38,8.34,80.78,8.34,81.21z"/>
		</g>
		<g class="st24">
			<path class="st25" d="M20.16,89.48l0,1.57c0,0.92,0.93,1.5,1.67,1.04l16.79-10.44c0.35-0.21,0.56-0.61,0.56-1.04l0-1.57
				c0-0.92-0.93-1.5-1.67-1.04L20.72,88.43C20.37,88.65,20.16,89.05,20.16,89.48z"/>
		</g>
		<g>
			<path class="st25" d="M12.79,86.25l0,1.57c0,0.92,0.93,1.5,1.67,1.04l24.14-15.01c0.35-0.21,0.56-0.61,0.56-1.04l0-1.57
				c0-0.92-0.93-1.5-1.67-1.04L13.35,85.21C13,85.42,12.79,85.82,12.79,86.25z"/>
		</g>
	</g>
	<g>
		
			<linearGradient id="SVGID_12_" gradientUnits="userSpaceOnUse" x1="130.6246" y1="181.8337" x2="153.1506" y2="224.7737" gradientTransform="matrix(1 0 0 -1 0 302)">
			<stop  offset="0" style="stop-color:#CC68FF"/>
			<stop  offset="1" style="stop-color:#FB8E31"/>
		</linearGradient>
		<path class="st26" d="M144.84,115.03c0,6.85-5.16,12.4-11.52,12.4c-6.36,0-11.52-5.55-11.52-12.4s5.16-12.4,11.52-12.4
			C139.68,102.62,144.84,108.18,144.84,115.03z"/>
		<polygon class="st8" points="132.33,120.73 127.52,116.95 129.27,114.37 131.76,116.33 136.82,109.39 139.15,111.36 		"/>
	</g>
	<g class="st27">
		<path class="st0" d="M118.3,60.1c2.71,1.69,4.91,5.79,4.9,9.15c-0.01,3.38-2.22,4.74-4.94,3.05L73.55,44.49
			c-2.71-1.69-4.91-5.79-4.9-9.17c0.01-3.36,2.22-4.72,4.94-3.03L118.3,60.1z"/>
	</g>
	<g class="st27">
		<path class="st23" d="M287.85,207.33c1.89,1.17,3.42,4.02,3.41,6.36c-0.01,2.35-1.54,3.29-3.43,2.12l-31.09-19.33
			c-1.89-1.17-3.41-4.02-3.41-6.37c0.01-2.34,1.54-3.28,3.43-2.1L287.85,207.33z"/>
	</g>
	<g>
		<linearGradient id="SVGID_13_" gradientUnits="userSpaceOnUse" x1="6.7854" y1="178.4449" x2="74.3996" y2="178.4449">
			<stop  offset="0" style="stop-color:#2196F3"/>
			<stop  offset="0.5" style="stop-color:#3F51B5"/>
			<stop  offset="1" style="stop-color:#021B79"/>
		</linearGradient>
		<path class="st28" d="M73.53,172.52c1.15,0.71,1.15,1.87,0.01,2.59l-38.19,23.9c-1.14,0.71-2.99,0.71-4.15,0L7.65,184.37
			c-1.15-0.71-1.16-1.87-0.01-2.59l38.19-23.9c1.14-0.71,3-0.71,4.15,0L73.53,172.52z"/>
	</g>
	<g>
		<g class="st29">
			
				<linearGradient id="SVGID_14_" gradientUnits="userSpaceOnUse" x1="40.1275" y1="61.0901" x2="96.1885" y2="61.0901" gradientTransform="matrix(1 0 0 -1 0 302)">
				<stop  offset="0" style="stop-color:#5155D4"/>
				<stop  offset="1" style="stop-color:#45F7FF"/>
			</linearGradient>
			<path class="st30" d="M48.4,228.55c-10.98,6.83-11.04,17.9-0.13,24.73c10.91,6.83,28.66,6.83,39.64,0
				c10.98-6.83,11.04-17.9,0.13-24.73C77.13,221.72,59.39,221.72,48.4,228.55z"/>
		</g>
		<g>
			<path class="st31" d="M61.75,244.12c0,0-5.05,1.42-7.03,1.42s0,2.13,3.29,2.36s6.37,0.47,7.03-0.47
				c0.66-0.95-0.15-3.63-0.15-3.63L61.75,244.12z"/>
			<path class="st31" d="M75.8,239.15c0,0-5.05,1.42-7.03,1.42s0,2.13,3.29,2.36s6.37,0.47,7.03-0.47c0.66-0.95-0.15-3.63-0.15-3.63
				L75.8,239.15z"/>
			<path class="st32" d="M76.9,180.45c0,0,1.83,54.06,2.12,59.73c0,0-1.46,1.26-3.22,0.63c0,0-5.93-35.46-6.81-44.6
				c-0.88-9.14-2.34-12.29-2.34-12.29L76.9,180.45z"/>
			<path class="st32" d="M58.16,183.6c0,0-1.76,31.2,3.51,61.46c0,0,1.76,0.95,3.22-1.26c0,0,3.22-52.95,4.1-60.52
				C69.87,175.72,60.5,182.02,58.16,183.6z"/>
			<path class="st32" d="M66.07,207.55c0,0,2.93-8.82,5.56-13.55c2.63-4.73,2.05-11.66,2.05-11.66l-9.95,0.95L66.07,207.55z"/>
			<path class="st13" d="M55.93,152.75l-8.7-4.54c0,0-2.64-2.84-3.29-3.41c-0.66-0.57-5.01-1.7-5.8-1.56s-2.24,1.42-1.85,1.7
				s4.08,2.41,4.22,3.26s-1.32,1.99-0.79,2.55s1.71-0.57,2.5-0.57s3.03,1.13,3.03,1.13l8.43,5.25L55.93,152.75z"/>
			<g>
				<path class="st33" d="M74.48,143.65c0,0-1.61-1.89-4.24,1.73s-4.83,8.98-8.49,8.51c-3.66-0.47-9.66-3.63-9.66-3.63
					s-2.63,1.89-2.19,4.73c0,0,8.49,6.78,14.2,6.46c5.71-0.32,11.85-6.62,13.17-11.03C78.58,146.01,74.48,143.65,74.48,143.65z"/>
			</g>
			<path class="st33" d="M56.88,183.53c0.53,2.83,8,4.24,12.38,3.49s9.08-3.06,8.93-8.52c0,0,0.66-21.82,0.66-26.11
				s-2.51-7.47-2.51-7.47s-2.45-3.01-10.15-1.32c0,0-6.27,1.47-9.16,6.46c0,0-1.99,5.48-1.33,16.93
				C56.37,178.43,56.88,183.53,56.88,183.53z"/>
			<path class="st17" d="M72.21,137.54c0,0-0.66,4.17,0,6.08c0.11,0.95-3.76,4.17-7.2,3.34c-1.99-0.48-1.88-1.55-1.88-1.55
				s1.66-2.98,1.44-5.84C64.35,136.71,69.88,136.94,72.21,137.54z"/>
			<g>
				<path class="st13" d="M59.25,129.13c0,5.43,4.09,9.84,9.13,9.84s9.13-4.4,9.13-9.84c0-5.43-4.09-9.84-9.13-9.84
					S59.25,123.7,59.25,129.13z"/>
				<path class="st13" d="M59.25,129.79c0,0-0.11,9.85,1.88,11.84s5.05-1.86,9.94-3.1c4.89-1.35-3.96-11.6-3.96-11.6L59.25,129.79z"
					/>
			</g>
			<g>
				<path class="st13" d="M47.95,162.03c0,0-12.79-6.13-14.51-7.18c-1.72-1.04-3.01-4.86-3.65-5.67c-0.65-0.81-3.55-2.66-3.44-1.85
					c0.11,0.81,1.61,2.32,1.61,2.32s-1.08,1.97-1.29,3.24c-0.22,1.27,1.4,3.82,2.26,4.51s2.9,0.93,2.9,0.93s10.42,7.52,12.14,7.64
					C45.69,166.08,48.16,165.04,47.95,162.03z"/>
				<path class="st33" d="M59.33,149.56c0,0-1.61-1.89-4.24,1.73s-4.83,8.98-8.49,8.51c-3.66-0.47-9.66-3.63-9.66-3.63
					s-2.63,1.89-2.19,4.73c0,0,8.49,6.78,14.2,6.46c5.71-0.32,11.85-6.62,13.17-11.03C63.43,151.92,59.33,149.56,59.33,149.56z"/>
			</g>
			<g>
				<path class="st20" d="M62.92,120.83c0,0-3.29,0.77-4.29,6.15c0.43,2.31,3.43,0.46,4.57,3.54c1.14,3.08,1.86,4,1.86,4l0.71-0.31
					c0,0,0-2.46,1-2.46s1.29,2.92,0.71,4.15c-0.57,1.23-1.86,1.85-1.86,1.85s1.43,2.62,2.14,2.92c0.71,0.31,3.29-0.31,4.29-0.77
					c1-0.46,2.86-2.62,4.29-5.08s2.71-6.77,1.86-9.69c-0.86-2.92-2.86-3.69-2.86-3.69s-1.14-1.69-3.14-2.46
					C70.21,118.22,66.49,117.91,62.92,120.83z"/>
				<path class="st20" d="M62.19,127.34c0,0,2.2,2.84,1.1,6.85c-1.1,4.02,0.44,4.02,1.98,9.22s-2.85,11.35,1.32,18.91
					s15.37,6.62,20.42-0.95s-2.85-13-3.07-19.86c-0.22-6.86,4.83-10.87-0.88-15.6c-5.71-4.73-8.12-9.93-15.15-7.8
					C60.87,120.25,59.11,124.03,62.19,127.34z"/>
			</g>
		</g>
	</g>
</g>
</svg>
