<?xml version="1.0" encoding="utf-8"?>
<!-- Generator: Adobe Illustrator 22.1.0, SVG Export Plug-In . SVG Version: 6.00 Build 0)  -->
<svg version="1.1" id="Layer_1" xmlns="http://www.w3.org/2000/svg" xmlns:xlink="http://www.w3.org/1999/xlink" x="0px" y="0px"
	 viewBox="0 0 300 300" enable-background="new 0 0 300 300" xml:space="preserve">
<path fill="#DDDFF2" stroke="#DDDFF2" stroke-miterlimit="10" d="M71.5,200.5c0,0-117,22-49,46s150,21,150,21s92-2,108-20
	s39-40-71-47S71.5,200.5,71.5,200.5z"/>
<g>
	<g>
		<g>
			<linearGradient id="SVGID_1_" gradientUnits="userSpaceOnUse" x1="23" y1="212.5" x2="55" y2="212.5">
				<stop  offset="0.2974" style="stop-color:#0080BC"/>
				<stop  offset="1" style="stop-color:#0000FF"/>
			</linearGradient>
			<ellipse fill="#3A140C" stroke="url(#SVGID_1_)" stroke-miterlimit="10" cx="39" cy="212.5" rx="15.5" ry="3"/>
			<g>
				<linearGradient id="SVGID_2_" gradientUnits="userSpaceOnUse" x1="22.8889" y1="215.6894" x2="51.7236" y2="215.6894">
					<stop  offset="0.2718" style="stop-color:#008ABC"/>
					<stop  offset="1" style="stop-color:#0000FF"/>
				</linearGradient>
				<path fill="none" stroke="url(#SVGID_2_)" stroke-miterlimit="10" d="M23.5,212.5c0,0-1,4,3,5s15,1,15,1s8,0,10-1"/>
				<linearGradient id="SVGID_3_" gradientUnits="userSpaceOnUse" x1="51.3787" y1="215.1819" x2="55.1111" y2="215.1819">
					<stop  offset="0.2718" style="stop-color:#008ABC"/>
					<stop  offset="1" style="stop-color:#0000FF"/>
				</linearGradient>
				<path fill="none" stroke="url(#SVGID_3_)" stroke-miterlimit="10" d="M54.5,212.5c0,0,1,4-3,5"/>
			</g>
		</g>
		<linearGradient id="SVGID_4_" gradientUnits="userSpaceOnUse" x1="24.6969" y1="228.0668" x2="52.6547" y2="228.0668">
			<stop  offset="0.4103" style="stop-color:#007EBC"/>
			<stop  offset="1" style="stop-color:#0000FF"/>
		</linearGradient>
		<linearGradient id="SVGID_5_" gradientUnits="userSpaceOnUse" x1="24.0531" y1="227.8246" x2="53.2777" y2="227.8246">
			<stop  offset="0" style="stop-color:#0071BC"/>
			<stop  offset="1" style="stop-color:#0000FF"/>
		</linearGradient>
		<path fill="url(#SVGID_4_)" stroke="url(#SVGID_5_)" stroke-miterlimit="10" d="M24.697,216.634L27.5,236.5c0,0,2,3,11,3
			s11-2,11-2l3.155-20.438l-2.003,0.728l-1.306,0.252l-1.433,0.172l-1.662,0.131l-1.934,0.096L41.5,218.5l-1.876-0.017l-2.313-0.049
			l-2.72-0.097l-2.56-0.143l-2.287-0.191l-1.796-0.224L26.5,217.5l-0.908-0.314L24.697,216.634z"/>
	</g>
	
		<linearGradient id="SVGID_6_" gradientUnits="userSpaceOnUse" x1="178.9209" y1="254.2124" x2="213.9392" y2="254.2124" gradientTransform="matrix(-0.8916 -0.4528 -0.4528 0.8916 322.8973 46.6234)">
		<stop  offset="0" style="stop-color:#FAB4C9"/>
		<stop  offset="0.0816" style="stop-color:#D5B2CF"/>
		<stop  offset="0.2182" style="stop-color:#9EB0D9"/>
		<stop  offset="0.3558" style="stop-color:#6FAEE1"/>
		<stop  offset="0.4916" style="stop-color:#48ACE8"/>
		<stop  offset="0.6252" style="stop-color:#2AABED"/>
		<stop  offset="0.7558" style="stop-color:#14AAF1"/>
		<stop  offset="0.8823" style="stop-color:#07A9F3"/>
		<stop  offset="1" style="stop-color:#03A9F4"/>
	</linearGradient>
	<path fill="url(#SVGID_6_)" d="M30.697,169.952c0.456,1.114,0.734,2.32,1.414,3.313c0.68,0.993,1.939,1.74,3.078,1.347
		c0.833-0.287,1.493-1.134,2.372-1.071c0.923,0.066,1.445,1.096,1.605,2.008c0.165,0.939,0.141,1.911-0.068,2.841
		c-0.284,1.261-0.902,2.588-0.404,3.781c0.424,1.016,1.513,1.551,2.488,2.064c0.687,0.361,1.359,0.752,2.012,1.172
		c1.115,0.717,2.28,1.703,2.322,3.028c0.035,1.104-0.724,2.047-1.291,2.995c-1.333,2.232-1.699,5.02-0.986,7.521
		c0.312,1.094,0.745,2.47-0.119,3.21c-1.272-0.438-2.626-0.636-3.97-0.578c-0.755,0.032-1.505,0.144-2.261,0.161
		c-1.587,0.034-3.181-0.363-4.566-1.139c-0.806-0.451-1.585-1.091-1.833-1.981c-0.255-0.916,0.104-1.878,0.457-2.76
		c0.367-0.918,0.735-1.836,1.102-2.755c-0.508-0.948-1.685-1.291-2.75-1.434c-1.065-0.143-2.217-0.203-3.061-0.868
		c-1.012-0.799-1.267-2.279-0.96-3.532c0.307-1.253,1.069-2.337,1.807-3.394c0.738-1.058,1.483-2.159,1.744-3.422
		c0.399-1.928-0.398-3.916-1.487-5.557c-1.088-1.641-2.476-3.076-3.481-4.769c-0.871-1.469-2.534-6.435,0.826-6.016
		C27.318,164.444,29.778,167.705,30.697,169.952z"/>
	<g>
		
			<linearGradient id="SVGID_7_" gradientUnits="userSpaceOnUse" x1="15.236" y1="172.3391" x2="28.4159" y2="172.3391" gradientTransform="matrix(0.9931 -0.1177 0.1177 0.9931 -7.9225 15.3148)">
			<stop  offset="0.2112" style="stop-color:#071786"/>
			<stop  offset="0.3408" style="stop-color:#061577"/>
			<stop  offset="0.7794" style="stop-color:#030E4A"/>
			<stop  offset="1" style="stop-color:#020C38"/>
		</linearGradient>
		<path fill="url(#SVGID_7_)" d="M32.458,177.641c-1.894-3.968-4.536-7.517-7.08-10.811l0.267-0.206
			c2.555,3.309,5.209,6.874,7.117,10.872c0.528,1.105,0.978,2.308,1.358,3.623l3.078-4.729l0.283,0.184l-3.175,4.878l-0.113-0.073
			c0.366,1.313,0.665,2.733,0.897,4.286c0.105,0.702,0.193,1.421,0.277,2.117c0.261,2.144,0.531,4.362,1.356,6.395
			c0.012,0.03,0.026,0.057,0.038,0.087l2.11-6.007l0.318,0.112l-2.229,6.348c1.371,2.938,3.761,4.831,5.727,6.166l-0.189,0.279
			c-2.028-1.377-4.498-3.341-5.895-6.42l-0.008-0.003l0.003-0.009c-0.064-0.141-0.128-0.281-0.187-0.426
			c-0.842-2.075-1.115-4.315-1.378-6.481c-0.024-0.196-0.049-0.396-0.074-0.595l-5.295-0.773l0.049-0.334l5.203,0.76
			c-0.05-0.39-0.102-0.78-0.159-1.165C34.279,182.521,33.527,179.88,32.458,177.641z"/>
		
			<linearGradient id="SVGID_8_" gradientUnits="userSpaceOnUse" x1="14.8796" y1="172.3444" x2="28.7821" y2="172.3444" gradientTransform="matrix(0.9931 -0.1177 0.1177 0.9931 -7.9225 15.3148)">
			<stop  offset="0.2112" style="stop-color:#071786"/>
			<stop  offset="0.3408" style="stop-color:#061577"/>
			<stop  offset="0.7794" style="stop-color:#030E4A"/>
			<stop  offset="1" style="stop-color:#020C38"/>
		</linearGradient>
		<path fill="url(#SVGID_8_)" d="M42.566,201.521l-0.215-0.146c-2.012-1.366-4.499-3.329-5.937-6.424l-0.14-0.046l0.047-0.158
			c-0.051-0.114-0.103-0.229-0.151-0.347c-0.855-2.107-1.13-4.364-1.395-6.547l-0.049-0.398l-5.356-0.782l0.124-0.848l5.121,0.748
			c-0.036-0.275-0.074-0.549-0.115-0.82c-0.474-3.167-1.219-5.784-2.276-7.999c-1.884-3.945-4.516-7.481-7.051-10.764l-0.159-0.206
			l0.679-0.523l0.159,0.205c2.563,3.32,5.226,6.897,7.146,10.919c0.456,0.955,0.862,2.004,1.211,3.123l2.914-4.477l0.718,0.467
			l-3.319,5.098c0.334,1.244,0.611,2.598,0.826,4.03c0.105,0.705,0.193,1.426,0.278,2.124c0.234,1.928,0.476,3.915,1.124,5.762
			l1.962-5.587l0.808,0.284l-2.28,6.492c1.36,2.844,3.699,4.68,5.592,5.966l0.215,0.146L42.566,201.521z"/>
	</g>
	
		<linearGradient id="SVGID_9_" gradientUnits="userSpaceOnUse" x1="-21.3793" y1="12.8543" x2="-5.6126" y2="12.8543" gradientTransform="matrix(0.7567 -0.6538 0.6538 0.7567 40.4307 130.0801)">
		<stop  offset="0" style="stop-color:#B8C1F1"/>
		<stop  offset="0.1146" style="stop-color:#ADC1C8"/>
		<stop  offset="0.2434" style="stop-color:#A3C2A2"/>
		<stop  offset="0.3776" style="stop-color:#9AC282"/>
		<stop  offset="0.5161" style="stop-color:#93C369"/>
		<stop  offset="0.6609" style="stop-color:#8FC358"/>
		<stop  offset="0.8162" style="stop-color:#8CC34D"/>
		<stop  offset="1" style="stop-color:#8BC34A"/>
	</linearGradient>
	<path fill="url(#SVGID_9_)" d="M39.713,161.949c-1.33-1.513-2.537-3.15-3.671-4.812c-2.87-4.206-6.611-10.051-4.554-15.355
		c0.749-1.93,2.212-3.521,4.105-4.375c0.897-0.405,1.993-0.544,2.941-0.251c1.496,0.462,2.185,1.891,2.252,3.375
		c0.084,1.875-0.66,3.64-1.459,5.291c-1.575,3.254-1.88,6.62-1.245,10.169c0.256,1.429,0.611,2.841,1.041,4.228
		C39.265,160.673,39.388,161.579,39.713,161.949z"/>
	
		<linearGradient id="SVGID_10_" gradientUnits="userSpaceOnUse" x1="-23.0477" y1="29.3667" x2="-6.9392" y2="29.3667" gradientTransform="matrix(0.7567 -0.6538 0.6538 0.7567 40.4307 130.0801)">
		<stop  offset="0" style="stop-color:#B8C1F1"/>
		<stop  offset="0.1146" style="stop-color:#ADC1C8"/>
		<stop  offset="0.2434" style="stop-color:#A3C2A2"/>
		<stop  offset="0.3776" style="stop-color:#9AC282"/>
		<stop  offset="0.5161" style="stop-color:#93C369"/>
		<stop  offset="0.6609" style="stop-color:#8FC358"/>
		<stop  offset="0.8162" style="stop-color:#8CC34D"/>
		<stop  offset="1" style="stop-color:#8BC34A"/>
	</linearGradient>
	<path fill="url(#SVGID_10_)" d="M47.068,173.015c0.328-2.171,0.527-4.465,0.387-6.657c-0.149-2.347-0.877-4.58-1.653-6.783
		c-0.615-1.746-1.137-3.831,0.249-5.368c1.465-1.624,4.038-1.106,5.65-0.01C59.225,159.311,51.505,168.806,47.068,173.015z"/>
	<g>
		<linearGradient id="SVGID_11_" gradientUnits="userSpaceOnUse" x1="34.6408" y1="177.9928" x2="47.6086" y2="177.9928">
			<stop  offset="0.2112" style="stop-color:#071786"/>
			<stop  offset="0.3408" style="stop-color:#061577"/>
			<stop  offset="0.7794" style="stop-color:#030E4A"/>
			<stop  offset="1" style="stop-color:#020C38"/>
		</linearGradient>
		<path fill="url(#SVGID_11_)" d="M40.249,212.655c-0.449,0.388-0.916,0.742-1.4,1.061l-0.566-0.857
			c1.597-1.055,2.996-2.52,4.162-4.359c3.263-5.15,4.574-12.28,4.01-21.796c-0.039-0.655-0.085-1.309-0.138-1.962
			c-0.711-8.716-3.97-16.298-7.064-22.564c-3.151-6.381-6.042-13.174-3.839-19.908l0.976,0.32c-2.085,6.371,0.6,12.686,3.783,19.133
			c3.137,6.353,6.442,14.047,7.167,22.936c0.054,0.661,0.1,1.323,0.139,1.984c0.577,9.739-0.786,17.068-4.168,22.407
			C42.419,210.459,41.393,211.666,40.249,212.655z"/>
	</g>
	<g>
		<linearGradient id="SVGID_12_" gradientUnits="userSpaceOnUse" x1="45.0304" y1="168.3237" x2="49.288" y2="168.3237">
			<stop  offset="0.2112" style="stop-color:#071786"/>
			<stop  offset="0.3408" style="stop-color:#061577"/>
			<stop  offset="0.7794" style="stop-color:#030E4A"/>
			<stop  offset="1" style="stop-color:#020C38"/>
		</linearGradient>
		<path fill="url(#SVGID_12_)" d="M45.566,174.641l-0.536-0.527c5.105-5.192,3.142-11.819,3.122-11.886l0.717-0.222
			C48.892,162.077,50.993,169.121,45.566,174.641z"/>
	</g>
</g>
<g>
	<path fill="#DDDFF2" stroke="#354CD3" stroke-miterlimit="10" d="M229.5,109.219c0,5.595-4.535,10.13-10.13,10.13
		c-1.567,0-3.045-0.352-4.368-0.989c-0.924,4.642-5.017,8.14-9.933,8.14c-2.044,0-3.945-0.602-5.536-1.645
		c-2.765-1.811-4.594-4.934-4.594-8.485c-0.864,1.621-2.151,2.973-3.724,3.915c-1.52,0.924-3.301,1.448-5.214,1.448
		c-3.975,0-7.419-2.288-9.069-5.625c-1.526,0.924-3.313,1.454-5.232,1.454c-5.595,0-10.13-4.535-10.13-10.13
		c0-0.375,0.018-0.751,0.066-1.114c-2.878-1.567-4.833-4.618-4.833-8.122c0-5.101,4.135-9.236,9.236-9.236
		c1.174,0,2.294,0.22,3.325,0.62c1.436-3.843,5.143-6.579,9.487-6.579c3.462,0,6.513,1.734,8.342,4.386
		c1.829-2.652,4.88-4.386,8.342-4.386c4.231,0,7.86,2.598,9.367,6.281c0.816-0.209,1.669-0.322,2.55-0.322
		c5.595,0,10.13,4.535,10.13,10.13c0,0.054,0,0.107-0.006,0.161c0.584-0.107,1.18-0.161,1.794-0.161
		C224.965,99.089,229.5,103.624,229.5,109.219z"/>
	<circle fill="#DDDFF2" stroke="#354CD3" stroke-miterlimit="10" cx="172" cy="123" r="2.5"/>
	<circle fill="#DDDFF2" stroke="#354CD3" stroke-miterlimit="10" cx="165" cy="126" r="1.5"/>
	<circle fill="#DDDFF2" stroke="#354CD3" stroke-miterlimit="10" cx="162.5" cy="132.5" r="1"/>
	<circle fill="none" stroke="#354CD3" stroke-miterlimit="10" cx="157" cy="134" r="0.5"/>
	
		<text transform="matrix(-1 0.0066 -0.0066 -1 205.8701 77.1246)" fill="#0F21BE" font-family="'FranklinGothic-Heavy'" font-size="47.1497px">“</text>
</g>
<path fill="#697DF7" stroke="#354CD3" stroke-miterlimit="10" d="M212.5,172.5"/>
<g>
	<g>
		<g>
			<path fill="#697DF7" stroke="#354CD3" stroke-linecap="round" stroke-miterlimit="10" d="M200.828,168.021
				c-6.413-10.771-30.626-18.679-59.472-18.52c-28.26,0.156-51.989,8.006-58.859,18.519l0.075,20.806l0.05,9l118.004,0.349
				L200.828,168.021z"/>
		</g>
		<polygon fill="#132BA5" stroke="#132BA5" stroke-linecap="round" stroke-miterlimit="10" points="82.563,187.16 200.562,186.509 
			200.643,201.175 82.639,200.826 		"/>
	</g>
	<g>
		<g>
			<g>
				<path fill="#697DF7" stroke="#354CD3" stroke-miterlimit="10" d="M141.115,200.971l-50.507-0.582c0,0-0.085-1.534-0.328-4
					c-0.962-9.793-4.396-34.291-14.781-35.889c-13-2-13,12-13,12l14.5,54h63.5"/>
				<path fill="#697DF7" stroke="#354CD3" stroke-miterlimit="10" d="M139,200.971l50.112-0.582c0,0,2.092-37.889,14.99-39.889
					s12.898,12,12.898,12l-14.387,54H139.61"/>
			</g>
			<path fill="#697DF7" stroke="#354CD3" stroke-linecap="round" stroke-miterlimit="10" d="M90.54,197.372
				c0,0-0.04,12.128-2.04,12.128"/>
			<path fill="#697DF7" stroke="#354CD3" stroke-linecap="round" stroke-miterlimit="10" d="M189.437,195.389
				c0,0-0.937,13.111,1.063,15.111"/>
		</g>
		<g>
			<path fill="#697DF7" stroke="#354CD3" stroke-miterlimit="10" d="M74.731,171.571c0,0.818-0.663,1.481-1.481,1.481
				c-0.438,0-0.832-0.19-1.103-0.493c-0.235-0.262-0.378-0.608-0.378-0.988c0-0.818,0.663-1.481,1.481-1.481
				S74.731,170.753,74.731,171.571z"/>
			<path fill="#DDDFF2" stroke="#354CD3" stroke-linecap="round" stroke-miterlimit="10" d="M72.248,170.481
				c0,0-0.902-0.814-1.325-0.814"/>
			<path fill="#DDDFF2" stroke="#354CD3" stroke-linecap="round" stroke-miterlimit="10" d="M71.777,171.421
				c-1.277-0.062-1.277,0.361-1.277,0.361"/>
			<path fill="#DDDFF2" stroke="#354CD3" stroke-linecap="round" stroke-miterlimit="10" d="M72.097,172.5
				c0,0-0.751,0.552-0.751,0.975"/>
			<path fill="#DDDFF2" stroke="#354CD3" stroke-miterlimit="10" d="M73.038,173.051c0,0,0,0.423,0.423,0.846c0.423,0.423,0,0,0,0"
				/>
			<path fill="#DDDFF2" stroke="#354CD3" stroke-miterlimit="10" d="M74.301,172.613c0,0,0.852,0.438,1.275,0.438c0.423,0,0,0,0,0"
				/>
			<path fill="#DDDFF2" stroke="#354CD3" stroke-miterlimit="10" d="M74.716,171.782c0,0,1.284,0.423,1.284,0c0-0.423,0,0,0,0"/>
			<path fill="#DDDFF2" stroke="#354CD3" stroke-linecap="round" stroke-miterlimit="10" d="M74.301,170.528
				c0,0,0.852-0.438,0.852-0.861"/>
			<path fill="#DDDFF2" stroke="#354CD3" stroke-miterlimit="10" d="M73.038,170.09c0,0,0.423-0.423,0-0.846c-0.423-0.423,0,0,0,0"
				/>
		</g>
		<g>
			<path fill="#697DF7" stroke="#354CD3" stroke-miterlimit="10" d="M207.731,171.571c0,0.818-0.663,1.481-1.481,1.481
				c-0.438,0-0.832-0.19-1.103-0.493c-0.235-0.262-0.378-0.608-0.378-0.988c0-0.818,0.663-1.481,1.481-1.481
				S207.731,170.753,207.731,171.571z"/>
			<path fill="#DDDFF2" stroke="#354CD3" stroke-linecap="round" stroke-miterlimit="10" d="M205.248,170.481
				c0,0-0.902-0.814-1.325-0.814"/>
			<path fill="#DDDFF2" stroke="#354CD3" stroke-linecap="round" stroke-miterlimit="10" d="M204.777,171.421
				c-1.277-0.062-1.277,0.361-1.277,0.361"/>
			<path fill="#DDDFF2" stroke="#354CD3" stroke-linecap="round" stroke-miterlimit="10" d="M205.097,172.5
				c0,0-0.751,0.552-0.751,0.975"/>
			<path fill="#DDDFF2" stroke="#354CD3" stroke-miterlimit="10" d="M206.038,173.051c0,0,0,0.423,0.423,0.846c0.423,0.423,0,0,0,0"
				/>
			<path fill="#DDDFF2" stroke="#354CD3" stroke-miterlimit="10" d="M207.301,172.613c0,0,0.852,0.438,1.275,0.438s0,0,0,0"/>
			<path fill="#DDDFF2" stroke="#354CD3" stroke-miterlimit="10" d="M207.716,171.782c0,0,1.284,0.423,1.284,0c0-0.423,0,0,0,0"/>
			<path fill="#DDDFF2" stroke="#354CD3" stroke-linecap="round" stroke-miterlimit="10" d="M207.301,170.528
				c0,0,0.852-0.438,0.852-0.861"/>
			<path fill="#DDDFF2" stroke="#354CD3" stroke-miterlimit="10" d="M206.038,170.09c0,0,0.423-0.423,0-0.846c-0.423-0.423,0,0,0,0"
				/>
		</g>
	</g>
</g>
<g>
	<path fill="#EF7631" d="M118.714,163.929c0,0-4.645,17.833-1.16,22.661l4.195-0.083c0.4-2.997,3.079-20.523,2.99-21.633
		c-0.107-1.347-0.991-2.333-2.461-2.577C122.278,162.297,119.567,161.924,118.714,163.929z"/>
	<path fill="#EF7631" d="M159.766,163.929c0,0,4.645,17.833,1.16,22.661l-4.214,0.777c-0.4-2.997-3.061-21.383-2.972-22.493
		c0.107-1.347,0.991-2.333,2.461-2.577C156.201,162.297,158.913,161.924,159.766,163.929z"/>
	<g>
		<path fill="#0B20C5" d="M121.971,151.642c-3.923,3.122-5.632,17.859-5.632,17.859l13.116,0.679l-3.879-20.012
			C125.267,150.252,122.067,151.565,121.971,151.642z"/>
		<path fill="#0B20C5" d="M156.252,151.642c3.923,3.122,5.632,17.859,5.632,17.859l-13.116,0.679l3.879-20.012
			C152.957,150.252,156.156,151.565,156.252,151.642z"/>
	</g>
	<g>
		<g>
			<g>
				<path fill="#FFC38A" d="M158.195,237.177c0.019-0.165,0.043-0.329,0.082-0.489C158.235,236.855,158.206,237.018,158.195,237.177
					z"/>
				<path fill="#FFC38A" d="M169.843,240.347c-0.015-0.004-0.029-0.009-0.044-0.013
					C169.814,240.339,169.828,240.343,169.843,240.347z"/>
				<path fill="#FFC38A" d="M169.565,240.255c-0.082-0.03-0.163-0.063-0.244-0.098C169.404,240.194,169.485,240.224,169.565,240.255
					z"/>
				<path fill="#FFC38A" d="M172.538,239.835c0.045-0.033,0.09-0.069,0.135-0.104C172.628,239.765,172.584,239.802,172.538,239.835z
					"/>
				<path fill="#FFC38A" d="M172.871,239.573c-0.022,0.019-0.043,0.038-0.065,0.056
					C172.827,239.611,172.849,239.591,172.871,239.573z"/>
			</g>
		</g>
	</g>
	<path fill="#98ABFD" d="M170.367,191.666c-0.049-0.144-0.108-0.283-0.174-0.416c-0.952-1.909-3.571-2.7-5.385-3.474
		c-3.067-1.308-6.25-2.316-9.351-3.539c-3.785-1.492-7.964-2.826-12.079-2.197c-1.532,0.234-2.981,0.796-4.266,1.62
		c-1.286-0.824-2.734-1.385-4.266-1.62c-4.115-0.629-8.294,0.705-12.079,2.197c-3.101,1.222-6.284,2.231-9.351,3.539
		c-1.814,0.774-4.433,1.565-5.385,3.474c-0.066,0.133-0.125,0.272-0.174,0.416c-0.609,1.782,0.221,3.739,1.137,5.255
		c0.554,0.916,2.159,3.558,3.273,3.78c4.583,0.975,9.33,0.854,13.959,0.304c2.81-0.334,5.597-0.832,8.371-1.381
		c1.418-0.281,3.023-0.541,4.514-1.032c1.492,0.491,3.096,0.752,4.514,1.032c2.775,0.549,5.562,1.047,8.371,1.381
		c4.629,0.55,9.377,0.671,13.959-0.304c1.114-0.222,2.719-2.864,3.273-3.78C170.146,195.405,170.976,193.449,170.367,191.666z"/>
	<g>
		<g>
			<path fill="#F39546" d="M99.685,242.328c0.018-0.022,0.036-0.044,0.054-0.065c0.208-0.247,0.446-0.464,0.699-0.661
				c-0.096,0.054-0.192,0.107-0.287,0.162c0.089-0.051,0.188-0.108,0.294-0.167c0.538-0.419,1.157-0.744,1.777-1.035
				c0.198-0.093,0.398-0.184,0.598-0.275c0.913-0.497,1.727-0.936,1.975-1.07c0.034-0.024,0.07-0.047,0.103-0.072
				c0.001,0.001,0.001,0.002,0.002,0.002c0.371-0.384,6.96-7.175,7.293-7.759c0.578-2.535,0.131-6.255,0.131-6.255l5.44-0.425
				c0,0-0.772,4.605-0.011,8.066c0.289,0.361,0.673,0.762,0.904,1.229c0.022,0.044,0.046,0.09,0.07,0.136
				c-0.03,0.007-0.058,0.015-0.087,0.022c0.023,0.006,0.048,0.009,0.069,0.017c0.776,0.298,1.243,2.526,1.357,3.232
				c0.064,0.393,0.095,0.806-0.04,1.181c-0.21,0.582-0.774,0.955-1.327,1.234c-1.128,0.569-2.351,0.925-3.506,1.439
				c-2.125,0.947-4.217,2.224-6.458,3.005c-2.479,0.865-5.131,0.879-7.706,1.261c-0.68,0.101-1.759,0.055-2.089-0.674
				C98.606,244.118,99.237,242.886,99.685,242.328z"/>
			<g>
				<path fill="#FFC38A" d="M120.028,237.177c-0.019-0.165-0.043-0.329-0.082-0.489
					C119.989,236.855,120.018,237.018,120.028,237.177z"/>
				<path fill="#FFC38A" d="M108.38,240.347c0.015-0.004,0.029-0.009,0.044-0.013C108.41,240.339,108.395,240.343,108.38,240.347z"
					/>
				<path fill="#FFC38A" d="M108.658,240.255c0.082-0.03,0.164-0.063,0.244-0.098C108.819,240.194,108.739,240.224,108.658,240.255z
					"/>
				<path fill="#FFC38A" d="M105.685,239.835c-0.045-0.033-0.09-0.069-0.135-0.104C105.595,239.765,105.639,239.802,105.685,239.835
					z"/>
				<path fill="#FFC38A" d="M105.353,239.573c0.022,0.019,0.043,0.038,0.065,0.056C105.396,239.611,105.374,239.591,105.353,239.573
					z"/>
			</g>
			<path fill="#0F21BE" d="M98.858,244.559c0.014,0.105,0.041,0.205,0.082,0.298c0.227,0.501,0.808,0.679,1.369,0.709
				c0.255,0.013,0.507-0.004,0.719-0.035c1.287-0.191,2.594-0.29,3.889-0.45c0.486-0.06,0.969-0.128,1.45-0.213
				c0.171-0.03,0.342-0.063,0.512-0.098c0.308-0.063,0.614-0.133,0.918-0.214c0.157-0.042,0.314-0.087,0.471-0.134
				c0.156-0.048,0.312-0.098,0.467-0.152c0.56-0.195,1.111-0.422,1.655-0.666c0.681-0.305,1.351-0.639,2.017-0.976
				c0.932-0.472,1.856-0.949,2.785-1.363c0.289-0.129,0.581-0.247,0.876-0.362c0.295-0.114,0.591-0.225,0.887-0.337
				c0.591-0.224,1.179-0.455,1.743-0.74c0.345-0.174,0.695-0.385,0.96-0.661c0.053-0.055,0.103-0.113,0.148-0.173
				c0.091-0.121,0.166-0.254,0.218-0.399c0.051-0.14,0.078-0.286,0.089-0.435c0.004-0.049,0.005-0.099,0.006-0.149
				c0.001-0.199-0.023-0.401-0.054-0.597c-0.036-0.221-0.106-0.59-0.209-1.003c-0.021-0.083-0.043-0.167-0.066-0.252
				c-0.043-0.156-0.091-0.316-0.142-0.473c-0.038-0.116-0.079-0.23-0.121-0.342c-0.057-0.149-0.118-0.292-0.183-0.424
				c-0.036-0.073-0.074-0.142-0.112-0.208c-0.23-0.389-0.558-0.71-0.814-1.081c-0.033-0.048-0.395-0.464-0.375-0.504
				c-1.991,1.808-5.96,2.229-7.817,0.342c-2.029,2.257-5.031,5.375-5.326,5.681c-0.017,0.009-0.033,0.019-0.047,0.029
				c-0.019,0.013-0.039,0.027-0.058,0.041c-0.248,0.133-1.061,0.572-1.974,1.069c-0.2,0.091-0.4,0.182-0.599,0.275
				c-0.143,0.067-0.286,0.137-0.428,0.208c-0.024,0.012-0.048,0.025-0.072,0.037c-0.141,0.072-0.281,0.146-0.419,0.224
				c-0.301,0.17-0.589,0.357-0.859,0.566c-0.105,0.059-0.204,0.116-0.294,0.167c0.095-0.055,0.192-0.108,0.287-0.162
				c-0.097,0.076-0.191,0.154-0.281,0.236c-0.037,0.033-0.074,0.067-0.111,0.101c-0.031,0.03-0.062,0.06-0.092,0.091
				c-0.074,0.075-0.146,0.151-0.215,0.232c-0.019,0.022-0.036,0.044-0.054,0.066c-0.028,0.035-0.057,0.072-0.086,0.112
				c-0.002,0.002-0.003,0.005-0.005,0.007c-0.041,0.057-0.083,0.119-0.125,0.184c-0.135,0.209-0.271,0.456-0.381,0.718
				c-0.024,0.058-0.047,0.116-0.069,0.175c-0.043,0.118-0.08,0.236-0.108,0.354c-0.029,0.118-0.049,0.235-0.058,0.349
				c-0.009,0.11-0.008,0.217,0.005,0.319C98.858,244.551,98.858,244.555,98.858,244.559z M104.792,239.219
				C104.792,239.219,104.792,239.219,104.792,239.219c-0.443,0.316-0.924,0.572-1.416,0.808c-0.014,0.007-0.027,0.013-0.041,0.02
				c-0.16,0.076-0.32,0.151-0.481,0.224C103.499,239.919,104.144,239.567,104.792,239.219z"/>
		</g>
		<path fill="#98ABFD" d="M108.797,191.23c0,0-1.424,0.032-1.074,3.801c0.35,3.769,4.278,34.214,4.278,34.214l6.196,0.194
			c0,0,3.374-22.588-1.679-35.363C116.518,194.076,113.76,188.378,108.797,191.23z"/>
	</g>
	<path fill="#182FD0" d="M139.167,147.513v-0.003c-0.018,0-0.037,0-0.055,0.001c-0.018-0.001-0.037-0.001-0.055-0.001v0.003
		c-8.093,0.057-16.452,3.733-16.452,3.733l2.323,32.945c5.729,3.92,13.156,4.359,14.129,4.409v0.007c0,0,0.023,0,0.055-0.001
		c0.032,0.001,0.055,0.001,0.055,0.001V188.6c0.973-0.049,8.4-0.489,14.129-4.409l2.323-32.945
		C155.619,151.246,147.26,147.57,139.167,147.513z"/>
	<path fill="#F39546" d="M178.539,242.328c-0.018-0.022-0.036-0.044-0.054-0.065c-0.208-0.247-0.446-0.464-0.699-0.661
		c0.096,0.054,0.192,0.107,0.287,0.162c-0.089-0.051-0.188-0.108-0.294-0.167c-0.538-0.419-1.157-0.744-1.778-1.035
		c-0.198-0.093-0.398-0.184-0.598-0.275c-0.913-0.497-1.727-0.936-1.975-1.07c-0.034-0.024-0.07-0.047-0.103-0.072
		c-0.001,0.001-0.001,0.002-0.002,0.002c-0.371-0.384-6.96-7.175-7.293-7.759c-0.578-2.535-0.131-6.255-0.131-6.255l-5.44-0.425
		c0,0,0.772,4.605,0.011,8.066c-0.289,0.361-0.673,0.762-0.904,1.229c-0.022,0.044-0.046,0.09-0.07,0.136
		c0.03,0.007,0.058,0.015,0.087,0.022c-0.023,0.006-0.048,0.009-0.069,0.017c-0.776,0.298-1.243,2.526-1.357,3.232
		c-0.064,0.393-0.095,0.806,0.04,1.181c0.21,0.582,0.774,0.955,1.327,1.234c1.128,0.569,2.351,0.925,3.506,1.439
		c2.125,0.947,4.217,2.224,6.458,3.005c2.48,0.865,5.131,0.879,7.706,1.261c0.68,0.101,1.759,0.055,2.089-0.674
		C179.617,244.118,178.987,242.886,178.539,242.328z"/>
	<path fill="#0F21BE" d="M179.366,244.547c0.013-0.102,0.014-0.209,0.005-0.319c-0.01-0.114-0.03-0.231-0.058-0.349
		c-0.029-0.118-0.065-0.237-0.108-0.354c-0.022-0.059-0.045-0.117-0.069-0.175c-0.11-0.262-0.246-0.509-0.381-0.718
		c-0.042-0.065-0.084-0.127-0.125-0.184c-0.002-0.002-0.003-0.005-0.005-0.007c-0.029-0.04-0.058-0.077-0.086-0.112
		c-0.018-0.022-0.036-0.044-0.054-0.066c-0.068-0.081-0.141-0.157-0.215-0.232c-0.03-0.031-0.061-0.061-0.092-0.091
		c-0.036-0.034-0.073-0.068-0.111-0.101c-0.091-0.082-0.185-0.161-0.281-0.236c0.096,0.054,0.192,0.107,0.287,0.162
		c-0.089-0.051-0.188-0.108-0.294-0.167c-0.269-0.209-0.557-0.396-0.859-0.566c-0.138-0.078-0.278-0.152-0.419-0.224
		c-0.024-0.012-0.048-0.025-0.072-0.037c-0.142-0.071-0.285-0.141-0.428-0.208c-0.198-0.093-0.398-0.184-0.598-0.275
		c-0.913-0.497-1.726-0.936-1.974-1.069c-0.019-0.014-0.039-0.027-0.058-0.041c-0.015-0.011-0.03-0.021-0.047-0.029
		c-0.295-0.306-3.297-3.424-5.326-5.681c-1.857,1.887-5.826,1.466-7.817-0.342c0.02,0.04-0.342,0.456-0.375,0.504
		c-0.256,0.371-0.584,0.692-0.814,1.081c-0.039,0.066-0.076,0.135-0.112,0.208c-0.065,0.132-0.126,0.275-0.183,0.424
		c-0.043,0.111-0.083,0.226-0.121,0.342c-0.052,0.157-0.099,0.316-0.142,0.473c-0.023,0.085-0.045,0.169-0.066,0.252
		c-0.103,0.413-0.173,0.782-0.209,1.003c-0.032,0.197-0.056,0.398-0.054,0.597c0,0.05,0.002,0.1,0.006,0.149
		c0.011,0.148,0.038,0.294,0.089,0.435c0.053,0.146,0.127,0.278,0.218,0.399c0.046,0.061,0.095,0.118,0.148,0.173
		c0.265,0.276,0.615,0.487,0.96,0.661c0.564,0.285,1.152,0.516,1.743,0.74c0.296,0.112,0.592,0.223,0.887,0.337
		c0.295,0.115,0.587,0.233,0.876,0.362c0.93,0.414,1.853,0.892,2.785,1.363c0.666,0.337,1.336,0.671,2.017,0.976
		c0.544,0.244,1.095,0.471,1.655,0.666c0.155,0.054,0.311,0.105,0.467,0.152c0.156,0.048,0.313,0.092,0.471,0.134
		c0.304,0.081,0.61,0.151,0.918,0.214c0.17,0.035,0.341,0.068,0.512,0.098c0.481,0.085,0.964,0.153,1.45,0.213
		c1.295,0.159,2.601,0.259,3.889,0.45c0.213,0.032,0.464,0.049,0.719,0.035c0.562-0.03,1.142-0.208,1.369-0.709
		c0.042-0.092,0.068-0.192,0.082-0.298C179.366,244.555,179.366,244.551,179.366,244.547z M175.37,240.271
		c-0.161-0.074-0.322-0.148-0.481-0.224c-0.014-0.006-0.027-0.013-0.041-0.02c-0.492-0.236-0.973-0.492-1.416-0.808c0,0,0,0,0,0
		C174.079,239.567,174.725,239.919,175.37,240.271z"/>
	<path fill="#98ABFD" d="M169.427,191.23c0,0,1.424,0.032,1.074,3.801c-0.35,3.769-4.278,34.214-4.278,34.214l-6.196,0.194
		c0,0-3.374-22.588,1.679-35.363C161.705,194.076,164.464,188.378,169.427,191.23z"/>
	<g>
		<path fill="#030E49" d="M150.477,138.049c0,0-0.257,10.301-3.982,14.797h-15.128c0,0-2.885-2.963-3.336-12.464
			c0,0-0.676-5.751,3.831-6.417C136.37,133.299,148.314,131.174,150.477,138.049z"/>
		<g>
			<path fill="#F39546" d="M139.192,137.216l-9.65,1.869c0,0,0.916,13.064,3.225,15.145c0.598,0.539,5.41,2.215,6.425,2.243
				c1.015-0.028,5.827-1.704,6.425-2.243c2.309-2.081,3.225-15.145,3.225-15.145L139.192,137.216z"/>
			<linearGradient id="SVGID_13_" gradientUnits="userSpaceOnUse" x1="146.7189" y1="142.2742" x2="149.2135" y2="142.2742">
				<stop  offset="0.5695" style="stop-color:#030E49"/>
				<stop  offset="0.6179" style="stop-color:#030D45"/>
				<stop  offset="0.7816" style="stop-color:#020C3B"/>
				<stop  offset="1" style="stop-color:#020C38"/>
			</linearGradient>
			<polygon fill="url(#SVGID_13_)" points="146.719,138.363 147.774,146.555 149.213,137.994 			"/>
			<g>
				<path fill="#F39546" d="M151.383,142.351c0.914,2.124-0.563,6.073-4.057,6.828l1.214-7.124
					C149.044,141.124,150.782,140.954,151.383,142.351z"/>
			</g>
		</g>
	</g>
	<path fill="#F39546" d="M139.6,166.074c-0.203-0.627-0.795-0.666-1.119-1.188c-0.237-0.382-0.131-0.819-0.091-1.242
		c0.063-0.67-0.437-0.763-0.901-1.13c-0.104-0.082,0.094-1.152,0.105-1.29c0.037-0.448,0.194-0.893,0.161-1.348
		c-0.045-0.616-0.587-0.705-1.095-0.747l-4.747,5.084l-0.693,2.857l-1.224,2.572c0,0-11.948,8.399-12.945,11.544
		c-0.423,1.336-0.762,3.394-0.015,4.672c1.419,2.427,4.588,1.47,6.511,0.274c2.619-1.629,3.773-4.496,5.402-6.979
		c0.666-1.015,1.34-2.026,2.029-3.026c0.623-0.904,1.272-2.233,2.107-2.946c0,0,6.363-5.43,6.372-5.439
		C139.848,167.36,139.752,166.544,139.6,166.074z"/>
	<g>
		
			<rect x="136.038" y="156.376" transform="matrix(1 0.0087 -0.0087 1 1.4349 -1.2124)" fill="#030E49" width="7.515" height="15.243"/>
		<path fill="#F39546" d="M138.879,166.074c0.203-0.627,0.795-0.666,1.119-1.188c0.237-0.382,0.131-0.819,0.091-1.242
			c-0.063-0.67,0.437-0.763,0.901-1.13c0.104-0.082-0.094-1.152-0.105-1.29c-0.037-0.448-0.194-0.893-0.161-1.348
			c0.045-0.616,0.587-0.705,1.096-0.747l2.646,3.94c0.107-0.548,0.322-1.614,0.519-2.427c0.277-1.143,1.351-0.469,1.351-0.469
			c-0.283,0.714-0.295,1.517-0.211,2.22l0.442,1.821v0l0,0l0.693,2.857l1.224,2.572c0,0,11.948,8.399,12.945,11.544
			c0.423,1.336,0.762,3.394,0.015,4.672c-1.419,2.427-4.588,1.47-6.511,0.274c-2.62-1.629-3.773-4.496-5.402-6.979
			c-0.666-1.015-1.34-2.026-2.029-3.026c-0.623-0.904-1.272-2.233-2.107-2.946c0,0-6.363-5.43-6.372-5.439
			C138.632,167.36,138.727,166.544,138.879,166.074z"/>
	</g>
	<path fill="#030E49" d="M132.861,138.181c0,0,4.728,5.905,14.232,4.22c0,0-8.146-1.216-10.341-6.1L132.861,138.181z"/>
	<path fill="#030E49" d="M134.008,138.078c0,0,12.09,7.319,18.576,0l1.982-2.928c0,0-3.18,0.673-4.088-0.621
		c-1.562-2.226-2.199-4.63-4.541-6.33c-1.264-0.917-2.805-1.269-4.35-1.188c-1.416,0.074-2.841,0.44-4.149,1.05
		c-1.402,0.654-2.332,1.809-3.43,2.859c0,0-3.224-0.976-5.206,1.139c-1.982,2.114-0.528,9.074-0.528,9.074l2.584,4.389
		L134.008,138.078z"/>
	<polygon fill="#EF7631" points="139.131,145.185 138.059,150.813 139.172,151.77 140.219,150.715 	"/>
	<path fill="#F39546" d="M127,142.282c-0.914,2.124,0.563,6.073,4.057,6.828l-1.214-7.124
		C129.339,141.055,127.601,140.885,127,142.282z"/>
</g>
<g>
	<path fill="#647AE8" stroke="#647AE8" stroke-linecap="round" stroke-miterlimit="10" d="M267.914,213.171h-50.329
		c-1.697,0-3.086-1.388-3.086-3.086l0,0c0-1.697,1.388-3.086,3.086-3.086h50.329c1.697,0,3.086,1.388,3.086,3.086l0,0
		C271,211.783,269.612,213.171,267.914,213.171z"/>
	<path fill="#647AE8" stroke="#647AE8" stroke-linecap="round" stroke-miterlimit="10" d="M222.168,240.5L222.168,240.5
		c-1.554,0-2.825-1.271-2.825-2.825v-24.324c0-1.554,1.271-2.825,2.825-2.825l0,0c1.554,0,2.825,1.271,2.825,2.825v24.324
		C224.993,239.229,223.722,240.5,222.168,240.5z"/>
	<path fill="#647AE8" stroke="#647AE8" stroke-linecap="round" stroke-miterlimit="10" d="M263.332,240.5L263.332,240.5
		c-1.554,0-2.825-1.271-2.825-2.825v-24.324c0-1.554,1.271-2.825,2.825-2.825l0,0c1.554,0,2.825,1.271,2.825,2.825v24.324
		C266.157,239.229,264.886,240.5,263.332,240.5z"/>
</g>
<g id="XMLID_1_">
	<g>
		<path fill="#A1AFE5" d="M261.25,187.41c4.83,0,8.75,3.92,8.75,8.75c0,2.96-1.47,5.57-3.72,7.16h-9.54c-0.15,0-0.29,0.02-0.43,0.06
			c-2.3-1.58-3.81-4.22-3.81-7.22C252.5,191.33,256.42,187.41,261.25,187.41z M261.44,195.61l4.85-2.9l-11.67,3.18h5.83
			c0,0.3,0.24,0.53,0.53,0.53c0.3,0,0.54-0.23,0.54-0.53C261.52,195.79,261.49,195.69,261.44,195.61z"/>
		<path fill="#072891" d="M266.29,203.32c0.87,0,1.59,0.71,1.59,1.59c0,0.87-0.72,1.59-1.59,1.59h-9.55c-0.87,0-1.59-0.72-1.59-1.59
			c0-0.73,0.5-1.34,1.16-1.53c1.41,0.97,3.11,1.53,4.94,1.53c1.87,0,3.61-0.59,5.03-1.59H266.29z"/>
		<path fill="#A1AFE5" d="M266.29,192.71l-4.85,2.9c-0.09-0.15-0.26-0.25-0.46-0.25c-0.29,0-0.53,0.24-0.53,0.53h-5.83
			L266.29,192.71z"/>
		<path fill="#647AE8" d="M256.74,203.32h9.54c-1.42,1-3.16,1.59-5.03,1.59c-1.83,0-3.53-0.56-4.94-1.53
			C256.45,203.34,256.59,203.32,256.74,203.32z"/>
		<path fill="#A1AFE5" d="M261.44,195.61c0.05,0.08,0.08,0.18,0.08,0.28c0,0.3-0.24,0.53-0.54,0.53c-0.29,0-0.53-0.23-0.53-0.53
			h0.53L261.44,195.61z"/>
		<path fill="#A1AFE5" d="M261.44,195.61l-0.46,0.28h-0.53c0-0.29,0.24-0.53,0.53-0.53C261.18,195.36,261.35,195.46,261.44,195.61z"
			/>
	</g>
	<g>
		<path fill="none" stroke="#0F21BE" stroke-linecap="round" stroke-miterlimit="10" d="M256.31,203.38
			c-2.3-1.58-3.81-4.22-3.81-7.22c0-4.83,3.92-8.75,8.75-8.75s8.75,3.92,8.75,8.75c0,2.96-1.47,5.57-3.72,7.16"/>
		<path fill="none" stroke="#0F21BE" stroke-linecap="round" stroke-miterlimit="10" d="M266.28,203.32h0.01
			c0.87,0,1.59,0.71,1.59,1.59c0,0.87-0.72,1.59-1.59,1.59h-9.55c-0.87,0-1.59-0.72-1.59-1.59c0-0.73,0.5-1.34,1.16-1.53
			c0.14-0.04,0.28-0.06,0.43-0.06H266.28z"/>
		
			<line fill="none" stroke="#0F21BE" stroke-linecap="round" stroke-miterlimit="10" x1="260.45" y1="195.89" x2="254.62" y2="195.89"/>
		
			<line fill="none" stroke="#0F21BE" stroke-linecap="round" stroke-miterlimit="10" x1="266.29" y1="192.71" x2="261.44" y2="195.61"/>
		<path fill="none" stroke="#0F21BE" stroke-linecap="round" stroke-miterlimit="10" d="M261.44,195.61
			c0.05,0.08,0.08,0.18,0.08,0.28c0,0.3-0.24,0.53-0.54,0.53c-0.29,0-0.53-0.23-0.53-0.53c0-0.29,0.24-0.53,0.53-0.53
			C261.18,195.36,261.35,195.46,261.44,195.61z"/>
	</g>
</g>
<path fill="#B4C1EF" stroke="#0F21BE" stroke-linecap="round" stroke-miterlimit="10" d="M245.5,206.5h-20
	c-2.475,0-4.5-2.025-4.5-4.5l0,0c0-2.475,2.025-4.5,4.5-4.5h20"/>
<path fill="#B4C1EF" stroke="#647AE8" stroke-linecap="round" stroke-miterlimit="10" d="M245.006,196.493l-17.145,0.014
	c-2.122,0.002-3.859-1.683-3.861-3.743l0,0c-0.002-2.061,1.733-3.748,3.854-3.75L245,189"/>
</svg>
