<?xml version="1.0" encoding="utf-8"?>
<!-- Generator: Adobe Illustrator 22.1.0, SVG Export Plug-In . SVG Version: 6.00 Build 0)  -->
<svg version="1.1" id="Layer_1" xmlns="http://www.w3.org/2000/svg" xmlns:xlink="http://www.w3.org/1999/xlink" x="0px" y="0px"
	 viewBox="0 0 600 600" enable-background="new 0 0 600 600" xml:space="preserve">
<g>
	<path opacity="0.25" fill="#6D55B0" d="M379.345,487.802c0-1.367-33.515-2.476-74.857-2.476c-41.342,0-74.857,1.109-74.857,2.476
		c0,1.367,33.515,2.476,74.857,2.476C345.83,490.278,379.345,489.17,379.345,487.802z"/>
	<path opacity="0.25" fill="#6D55B0" d="M219.869,469.783c0-1.367-33.514-2.476-74.857-2.476s-74.857,1.109-74.857,2.476
		c0,1.367,33.515,2.476,74.857,2.476S219.869,471.151,219.869,469.783z"/>
	<g>
		<path opacity="0.33" fill="#E4CACA" d="M76.596,170.493l130.933-0.409l-33.4-6.816c0,0,1.363-37.489-14.996-29.992
			c-16.359,7.498-17.041,23.857-17.041,23.857s-6.135-14.996-14.996-9.543c-8.861,5.453-12.951,14.996-12.951,14.996
			s-3.181-10.79-8.861-11.402c-4.857-0.523-14.096,9.74-18.939,15.513L76.596,170.493z"/>
		<path opacity="0.33" fill="#E4CACA" d="M436.691,231.309l108.009-0.304l-27.552-5.064c0,0,1.125-27.853-12.37-22.283
			c-13.495,5.571-14.057,17.725-14.057,17.725s-5.061-11.141-12.37-7.09c-7.31,4.051-10.684,11.141-10.684,11.141
			s-2.624-8.016-7.31-8.471c-4.007-0.389-11.628,7.236-15.623,11.525L436.691,231.309z"/>
		<path opacity="0.33" fill="#E4CACA" d="M260.978,76.53l108.009-0.337l-27.552-5.623c0,0,1.125-30.926-12.37-24.741
			c-13.495,6.185-14.057,19.68-14.057,19.68s-5.061-12.37-12.37-7.872c-7.31,4.498-10.684,12.37-10.684,12.37
			s-2.624-8.901-7.31-9.406c-4.007-0.432-11.628,8.035-15.623,12.797L260.978,76.53z"/>
		<path fill="#8BC34A" d="M450.979,57.831l-8.214,2.851l-3.562-10.261c-6.57-18.926-27.321-28.976-46.231-22.411
			c-18.919,6.568-28.957,27.306-22.387,46.232l3.562,10.261l-8.241,2.861c-6.408,2.225-9.851,9.316-7.624,15.731l23.18,66.773
			c2.261,6.512,9.362,9.959,15.77,7.734l85.073-29.533c6.512-2.261,9.957-9.369,7.696-15.881l-23.18-66.772
			C464.594,59,457.491,55.57,450.979,57.831z M386.087,68.86c-3.601-10.372,1.897-21.739,12.269-25.34
			c10.365-3.598,21.73,1.915,25.33,12.287l3.562,10.261l-37.6,13.053L386.087,68.86z M435.392,129.721l5.92,17.052
			c0.25,0.721-0.178,1.461-0.908,1.714l-8.164,2.834c-0.624,0.217-1.426-0.096-1.676-0.817l-5.92-17.052
			c-6.334-0.228-12.23-4.217-14.458-10.632c-2.863-8.248,1.518-17.298,9.793-20.171c8.269-2.871,17.314,1.519,20.178,9.766
			C442.384,118.831,440.228,125.616,435.392,129.721z"/>
		<g>
			<path fill="#C5E1A5" d="M394.71,387.701c-2.021-3.939,2.711-8.157,7.07-8.936c4.358-0.779,9.295-0.182,12.766-2.931
				c4.634-3.67,4.397-11.674,9.531-14.604c4.121-2.352,9.577-0.108,13.943-1.966c5.424-2.309,6.95-9.866,12.271-12.403
				c4.242-2.023,9.789,0.263,11.954,4.434c2.165,4.171,1.169,9.562-1.833,13.177c-2.348,2.828-5.824,4.81-7.283,8.183
				c-2.284,5.282,1.321,11.684-0.781,17.041c-3.882,9.894-22.221,6.916-25.407,17.056c-0.709,2.257-0.411,4.691-0.596,7.05
				c-0.549,7.017-5.496,13.147-11.606,16.642c-6.11,3.495-13.257,4.708-20.279,5.199c-2.869,0.201-5.893,0.26-8.451-1.056
				c-2.407-1.238-4.081-3.542-5.388-5.913C372.19,413.375,368.714,393.438,394.71,387.701"/>
		</g>
		<g>
			<path fill="#90CAF9" d="M259.457,379.57c4.534-2.997,2.013-10.358-2.18-13.816c-4.193-3.458-9.832-5.793-11.89-10.823
				c-2.746-6.717,2.328-15.135-1.4-21.361c-2.992-4.997-10.179-5.883-13.73-10.5c-4.411-5.737-1.492-14.739-5.656-20.657
				c-3.319-4.718-10.629-5.613-15.457-2.456c-4.828,3.157-7.009,9.523-5.975,15.198c0.808,4.438,3.333,8.652,2.862,13.138
				c-0.738,7.025-8.449,11.702-9.427,18.698c-1.807,12.921,19.604,20.78,16.905,33.544c-0.601,2.842-2.386,5.265-3.609,7.9
				c-3.638,7.837-2.038,17.373,2.392,24.791c4.43,7.418,11.345,13.02,18.56,17.774c2.948,1.942,6.147,3.827,9.675,3.96
				c3.32,0.125,6.499-1.331,9.324-3.08C268.084,420.593,283.808,401.362,259.457,379.57"/>
		</g>
		<g>
			<g>
				<path fill="#FB806D" d="M378.423,395.772c6.342-2.735,12.052-7.794,16.787-12.681c12.77-13.181,20.686-30.395,24.85-48.114
					c3.768-16.035,4.609-32.615,3.821-49.026c-0.067-1.389-2.236-1.397-2.169,0c1.769,36.869-5.551,82.112-38.547,104.553
					c-1.844,1.254-3.78,2.508-5.836,3.395C376.05,394.45,377.153,396.319,378.423,395.772L378.423,395.772z"/>
			</g>
			<path fill="#FB806D" d="M420.358,328.773c0,0,2.09-11.944,17.914-13.835C438.272,314.938,432.5,329.073,420.358,328.773z"/>
			<path fill="#FB806D" d="M415.171,346.426c0,0,4.821-11.126,20.649-9.27C435.82,337.156,426.907,349.552,415.171,346.426z"/>
			<path fill="#FB806D" d="M408.448,361.985c0,0,7.191-9.763,22.201-4.408C430.649,357.578,419.186,367.662,408.448,361.985z"/>
			<path fill="#FB806D" d="M422.788,310.227c0,0,2.054-11.741,17.61-13.6C440.398,296.627,434.724,310.522,422.788,310.227z"/>
			<path fill="#FB806D" d="M423,289.823c0,0-8.857-7.977-2.171-22.144C420.829,267.678,429.589,279.866,423,289.823z"/>
			<path fill="#FB806D" d="M423.054,301.925c0,0-11.722-2.163-13.436-17.735C409.618,284.189,423.46,289.992,423.054,301.925z"/>
			<path fill="#FB806D" d="M421.885,319.813c0,0-11.722-2.163-13.436-17.735C408.448,302.077,422.29,307.88,421.885,319.813z"/>
			<path fill="#FB806D" d="M418.841,336.566c0,0-11.541-2.98-12.159-18.634C406.682,317.932,420.082,324.692,418.841,336.566z"/>
			<path fill="#FB806D" d="M413.523,353.304c0,0-11.541-2.98-12.16-18.634C401.363,334.67,414.764,341.429,413.523,353.304z"/>
		</g>
		<path fill="#2196F3" d="M384.126,437.793H257.982c-11.68,0-21.148-9.468-21.148-21.148V128.66c0-11.68,9.468-21.148,21.148-21.148
			h126.144c11.68,0,21.148,9.468,21.148,21.148v287.985C405.274,428.325,395.805,437.793,384.126,437.793z"/>
		<g>
			<path fill="#F0EBEB" d="M382.687,426.12H259.421c-8.18,0-14.811-6.631-14.811-14.811V132.035c0-8.18,6.631-14.811,14.811-14.811
				h123.266c8.18,0,14.811,6.631,14.811,14.811v279.274C397.498,419.489,390.867,426.12,382.687,426.12z"/>
		</g>
		<path fill="#2196F3" d="M366.802,117.224h-9.943c-3.051,0-5.524,2.473-5.524,5.524v3.947c0,3.051-2.473,5.524-5.524,5.524h-44.339
			c-3.051,0-5.524-2.473-5.524-5.524v-3.947c0-3.051-2.473-5.524-5.524-5.524h-28.233v-2.834h104.61V117.224z"/>
		<g>
			<path fill="#34336C" d="M325.302,164.83c0.649-0.347,1.096-1.023,1.096-1.809c0-1.138-0.922-2.059-2.058-2.059
				c-1.137,0-2.059,0.921-2.059,2.059c0,0.786,0.447,1.462,1.096,1.809c-1.3,0.411-2.249,1.632-2.249,3.062v1.62h6.423v-1.62
				C327.551,166.461,326.602,165.241,325.302,164.83z"/>
			<g>
				<text transform="matrix(1 0 0 1 296.939 180.8882)" fill="#34336C" font-family="'Montserrat-Regular'" font-size="7.0781px">Create Account</text>
			</g>
		</g>
		<g>
			<path fill="#8BC34A" d="M350.918,380.817h-61.32c-0.635,0-1.15-0.515-1.15-1.15v-11.986c0-0.635,0.515-1.15,1.15-1.15h61.32
				c0.635,0,1.15,0.515,1.15,1.15v11.986C352.068,380.302,351.553,380.817,350.918,380.817z"/>
			<g>
				<text transform="matrix(1 0 0 1 309.2832 375.2256)" fill="#8BC34A" font-family="'Montserrat-Regular'" font-size="5.2724px">Register</text>
			</g>
		</g>
		<g>
			<g opacity="0.57">
				<text transform="matrix(1 0 0 1 266.1548 200.0845)" fill="#34336C" font-family="'Montserrat-Regular'" font-size="4.817px">Email Address</text>
			</g>
			<g>
				<text transform="matrix(1 0 0 1 271.5698 215.8062)" fill="#34336C" font-family="'Montserrat-Regular'" font-size="4.817px">youremail@gmail.c</text>
			</g>
			<path fill="none" stroke="#34336C" stroke-width="0.5" stroke-miterlimit="10" d="M379.765,222.854H268.913
				c-1.524,0-2.759-1.235-2.759-2.759v-12.017c0-1.524,1.235-2.759,2.759-2.759h110.852c1.524,0,2.759,1.235,2.759,2.759v12.017
				C382.524,221.619,381.289,222.854,379.765,222.854z"/>
		</g>
		<g>
			<g>
				<g opacity="0.52">
					<text transform="matrix(1 0 0 1 266.1548 239.1128)" fill="#34336C" font-family="'Montserrat-Regular'" font-size="4.817px">Country</text>
				</g>
				<g>
					<g>
						<text transform="matrix(1 0 0 1 271.5698 254.6841)" fill="#34336C" font-family="'Montserrat-Regular'" font-size="4.817px">Your text</text>
					</g>
					<path fill="none" stroke="#34336C" stroke-width="0.5" stroke-miterlimit="10" d="M379.765,262.035H268.913
						c-1.524,0-2.759-1.235-2.759-2.759v-12.017c0-1.524,1.235-2.759,2.759-2.759h110.852c1.524,0,2.759,1.235,2.759,2.759v12.017
						C382.524,260.8,381.289,262.035,379.765,262.035z"/>
				</g>
			</g>
		</g>
		<g>
			<g>
				<g opacity="0.52">
					<text transform="matrix(1 0 0 1 266.1548 280.3228)" fill="#34336C" font-family="'Montserrat-Regular'" font-size="4.817px">City</text>
				</g>
				<g>
					<g>
						<text transform="matrix(1 0 0 1 271.5698 295.894)" fill="#34336C" font-family="'Montserrat-Regular'" font-size="4.817px">Your City</text>
					</g>
					<path fill="none" stroke="#34336C" stroke-width="0.5" stroke-miterlimit="10" d="M379.765,303.245H268.913
						c-1.524,0-2.759-1.235-2.759-2.759V288.47c0-1.524,1.235-2.759,2.759-2.759h110.852c1.524,0,2.759,1.235,2.759,2.759v12.017
						C382.524,302.01,381.289,303.245,379.765,303.245z"/>
				</g>
			</g>
		</g>
		<g>
			<g>
				<g opacity="0.52">
					<text transform="matrix(1 0 0 1 266.1548 321.7344)" fill="#34336C" font-family="'Montserrat-Regular'" font-size="4.817px">Password</text>
				</g>
				<g>
					<g>
						<text transform="matrix(1 0 0 1 271.5698 337.3047)" fill="#34336C" font-family="'Montserrat-Regular'" font-size="4.817px">Entry password</text>
					</g>
					<path fill="none" stroke="#34336C" stroke-width="0.5" stroke-miterlimit="10" d="M379.765,344.655H268.913
						c-1.524,0-2.759-1.235-2.759-2.759V329.88c0-1.524,1.235-2.759,2.759-2.759h110.852c1.524,0,2.759,1.235,2.759,2.759v12.017
						C382.524,343.42,381.289,344.655,379.765,344.655z"/>
				</g>
			</g>
		</g>
		
			<line fill="none" stroke="#00C3E3" stroke-width="0.5" stroke-miterlimit="10" x1="319.239" y1="210.049" x2="319.239" y2="216.236"/>
		<path fill="#FFBA99" d="M312.394,329.416c0,0,7.439,11.487,9.123,6.509c1.684-4.978,2.715-8.024,2.715-8.024
			s-2.112-3.463-3.231-2.397c-1.17,1.114-2.688-0.911-2.688-0.911L312.394,329.416z"/>
		<g>
			<path fill="#FFBA99" d="M349.16,270.012l3.074-17.848c2.017-0.651,4.093-2.21,3.382-4.621c-0.355-1.204-1.298-1.843-2.409-2.262
				c-0.418-0.158-2.567-0.775-2.717,0.053c0.002-0.012,1.17-6.433,1.17-6.433l-20.932-10.101c0,0-1.908,12.811-1.93,12.96
				c0.03-0.199-2.035-0.663-2.314-0.633c-1.052,0.112-2.076,1.092-2.489,2.013c-1.089,2.428,1.019,5.498,3.649,5.54
				c0,0,0.359,5.748,1.691,7.787c1.333,2.039,7.487,3.448,7.487,3.448l-0.675,7.771L349.16,270.012z"/>
		</g>
		<g>
			<path fill="#4FC3F7" d="M356.23,271.474c-9.459-2.654-22.743-4.99-22.743-4.99l-8.813,62.764l37.129-1.146L356.23,271.474z"/>
		</g>
		<g>
			<path fill="#4FC3F7" d="M356.23,271.474c12.35,3.236,24.543,5.679,37.243,6.994c-2.828-12.864-4.376-22.699-8.072-33.625
				c3.529-0.893,10.415-2.654,13.944-3.547c0,0,11.694,40.738,8.144,46.17c-6.04,9.243-36.122,3.157-36.122,3.157l-14.229-2.536
				L356.23,271.474z"/>
		</g>
		<g>
			<path fill="#4FC3F7" d="M292.643,285.293c0,0,39.854-19.495,41.686-18.777c1.832,0.719,3.388,9.755,3.388,9.755
				s-14.448,9.191-36.789,19.576l20.321,27.66l-10.123,7.261c0,0-27.903-31.36-26.842-37.842
				C285.102,287.925,292.643,285.293,292.643,285.293z"/>
		</g>
		<path fill="#FFBA99" d="M398.744,241.448c0,0-1.649-11.529-1.846-11.859c-0.197-0.329-0.197-2.364-3.158-1.873
			c0,0-0.197-3.654-1.908-3.719c-1.711-0.066-3.619,0.395-3.619,0.395s-1.926-9.367-3.175-10.99
			c-1.365-1.774-3.273,2.898-0.312,14.315c0,0,1.64,7.765,1.151,8.05c-1.325,0.773-3.146,0.633-5.666-3.677
			c-2.676-4.576-6.012-3.026-4.368,0.526c1.645,3.553,3.976,8.149,5.489,9.399c1.513,1.25,4.709,1.062,4.709,1.062l0.47,1.484
			L398.744,241.448z"/>
		<g>
			<path fill="#1454E2" d="M361.802,328.103c-4.472,67.92-19.655,151.742-19.655,151.742l14.87,6.294h-31.666l20.77-148.228h-7.115
				l-52.538,148.323h-31.631l17.995-6.561l52.519-155.248L361.802,328.103z"/>
		</g>
		<path fill="#CF6940" d="M354.186,245.754c1.769-3.54,3.84-12.129-1.533-14.517c-2.789-1.239-5.68-3.024-7.815-4.454
			c-3.275-2.193-7.346-3.063-11.144-2.009c-0.609,0.169-1.204,0.385-1.763,0.659c-3.751,1.842-6.284,11.809-6.284,11.809
			l3.686,0.923c0,0,4.111,18.283,10.874,22.04l6.755,1.431l3.997,0.897L354.186,245.754z"/>
		<g>
			<g>
				<path fill="#CF6940" d="M349.235,229.97c0.028-1.095-0.014-2.185-0.127-3.274c-0.039-0.377-0.635-0.381-0.595,0
					c0.112,1.09,0.155,2.18,0.127,3.274C348.63,230.353,349.225,230.353,349.235,229.97L349.235,229.97z"/>
			</g>
		</g>
		<g>
			<g>
				<path fill="#CF6940" d="M349.261,230.063c0.463-0.294,0.618-0.849,0.873-1.311c0.318-0.574,0.683-1.117,1.082-1.637
					c0.233-0.304-0.284-0.601-0.514-0.3c-0.319,0.416-0.617,0.846-0.886,1.296c-0.237,0.398-0.457,1.185-0.856,1.437
					C348.638,229.754,348.936,230.269,349.261,230.063L349.261,230.063z"/>
			</g>
		</g>
		<path fill="#5F4456" d="M170.767,209.904c-1.404-0.322-2.717-0.371-4.513-0.538c-2.679-0.249-5.123,1.486-7.151,3.255
			c-2.028,1.768-3.489,4.088-4.801,6.437c-1.341,2.4-2.593,5.18-1.801,7.813c0.202,0.67,0.535,1.322,0.525,2.021
			c-0.029,2.177-3.03,2.998-3.968,4.963c-1.16,2.428,1.208,5.698-0.397,7.857c-0.801,1.078-2.343,1.417-3.102,2.525
			c-0.596,0.87-0.571,2.007-0.524,3.061c0.01,0.217,0.03,0.457,0.189,0.605c0.133,0.122,0.326,0.146,0.506,0.163
			c8.574,0.824,17.06-1.03,25.635-0.206c1.035,0.099,2.079,0.199,3.112,0.077c1.482-0.175,2.87-0.795,4.228-1.414
			c7.411-3.377,14.83-4.253,22.072-7.98c0.303-0.156,0.626-0.332,0.778-0.637c0.117-0.234,0.113-0.509,0.087-0.769
			c-0.194-1.908-1.604-3.637-3.435-4.212c-1.887-0.592-4.15-0.074-5.724-1.27c-1.136-0.863-1.549-2.377-1.699-3.795
			c-0.304-2.882,0.024-6.217-2.062-8.228c-1.634-1.575-4.257-1.747-5.898-3.315c-0.935-0.893-1.438-2.137-2.193-3.187
			C178.422,210.054,174.66,208.271,170.767,209.904"/>
		<g>
			<path fill="#4A648E" d="M156.438,308.981l-47.793,151.247l-18.811,7.254h27.916l53.962-142.493
				c0.346-0.915,1.223-1.52,2.201-1.52l0,0c1.399,0,2.488,1.213,2.34,2.603l-14.219,141.41h28.257l-18.867-6.239
				c0,0,17.578-82.227,21.49-107.955c3.912-25.728-1.758-43.907-1.758-43.907S172.838,303.572,156.438,308.981z"/>
		</g>
		<g>
			<path fill="#1454E2" d="M156.998,254.545c4.381-4.576,21.796-5.103,28.091-2.518c6.296,2.585,17.879,36.027,17.879,36.027
				l-11.52,4.523l-7.148-27.958l-22.404-3.087L156.998,254.545z"/>
		</g>
		<g>
			<path fill="#1454E2" d="M186.433,268.726c0,0,1.962-4.629,2.381-8.202c0.419-3.573-4.439-7.067-4.439-7.067l-26.359,6.831
				l1.639,15.701l-3.868,31.725l33.493,1.244l-3.365-40.099"/>
		</g>
		<g>
			<path fill="#3095BC" d="M160.023,269.63c-0.112,0-0.225-0.035-0.321-0.107c-0.236-0.178-0.285-0.514-0.108-0.75l1.873-2.495
				c0.178-0.237,0.514-0.286,0.749-0.107c0.238,0.177,0.285,0.513,0.107,0.749l-1.871,2.495
				C160.346,269.556,160.185,269.63,160.023,269.63z"/>
		</g>
		<g>
			<path fill="#6DCAED" d="M143.292,313.118c2.014-1.173,4.029-2.345,6.043-3.518"/>
		</g>
		<g>
			<path fill="#FFBA99" d="M169.383,250.768c-0.367-3.501,1.424-7.052-4.224-9.314c-7.786-3.119-9.456-29.968,4.608-30.028
				c14.065-0.06,13.375,17.662,13.319,22.924c-0.056,5.262-4.689,6.602-5.847,8.506c-1.158,1.904-0.158,7.913-0.158,7.913H169.383z"
				/>
		</g>
		<g>
			<path fill="#FFBA99" d="M161.403,230.435c0,1.725-1.209,3.123-2.7,3.123c-1.491,0-2.7-1.398-2.7-3.123s1.209-3.123,2.7-3.123
				C160.194,227.312,161.403,228.71,161.403,230.435z"/>
		</g>
		<g>
			<ellipse fill="#FFBA99" cx="183.935" cy="228.022" rx="2.7" ry="3.123"/>
		</g>
		<path fill="#58568C" d="M242.169,284.87l-4.171-10.568l-117.915,46.29c-4.551-6.151-11.857-10.141-20.096-10.141
			c-13.799,0-24.984,11.186-24.984,24.985c0,13.799,11.186,24.985,24.984,24.985s24.985-11.186,24.985-24.985
			c0-1.026-0.069-2.035-0.189-3.029l89.798-36.365l4.932,10.847l10.953-5.017l-3.855-8.631l3.549-1.88l4.175,8.304l7.835-4.184
			l-4.34-8.853L242.169,284.87z M99.987,351.713c-8.989,0-16.277-7.287-16.277-16.277c0-8.989,7.287-16.277,16.277-16.277
			c8.989,0,16.277,7.287,16.277,16.277C116.264,344.426,108.977,351.713,99.987,351.713z"/>
		<g>
			<path fill="#1454E2" d="M156.998,254.545c0,0-29.73,26.471-29.893,31.384c-0.163,4.913,17.517,30.757,17.517,30.757l8.838-5.588
				l-12.378-23.169l20.138-19.203c0,0,0.659,4.462,2.27,5.676l0.896-17.665L156.998,254.545z"/>
		</g>
		<path fill="#5F4456" d="M180.264,217.6c-3.865,0.199-20.994,1.942-20.994,1.942s2.505-10.282,10.497-10.686
			C180.264,208.325,180.264,217.6,180.264,217.6z"/>
		<path fill="#5F4456" d="M159.291,228.459c0,0,13.88-1.3,16.312-7.852c0,0,4.609,5.892,7.308,5.596c0,0,0.442-7.752-1.236-8.801
			c-1.678-1.049-22.972,1.114-22.972,1.114S158.153,223.473,159.291,228.459z"/>
		<path fill="#FFBA99" d="M144.993,316.372c0,0,3.792,7.995,4.009,8.189s0.676,1.671,2.713,0.648c0,0,0.966,2.607,2.222,2.269
			c1.256-0.337,2.537-1.101,2.537-1.101s1.523,2.029,2.651,0.957c1.319-1.253,0.071-2.644-0.87-4.154c0,0-2.938-5.265-2.648-5.582
			c0.787-0.859,2.14-1.167,4.939,1.393c2.972,2.718,5.044,0.842,3.051-1.365c-1.993-2.208-4.72-5.018-6.099-5.584
			c-1.38-0.566-3.656,0.29-3.656,0.29l-0.675-0.971L144.993,316.372z"/>
		<path fill="#1454E2" d="M205.775,299.609c0,0-2.129,6.052-5.848,7.068c-3.719,1.016-24.571,5.251-24.571,5.251v-8.247
			L205.775,299.609z"/>
		<path fill="#FFBA99" d="M175.356,304.669h-1.589c0,0-0.356-1.116-0.582-1.482c-0.652-1.057-9.381-2.168-9.221-1.026
			c0.16,1.143,1.596,1.425,4.673,1.995c0,0-11.512,2.793-10.429,3.704c1.083,0.912,8.264-1.184,8.264-1.184s-7.79,2.534-7.238,4.262
			c0.316,0.989,8.21-1.338,8.21-1.338s-8.039,2.877-6.615,3.846c1.425,0.969,10.316-1.213,11.17-1.518
			c0.855-0.305,1.185-1.958,1.185-1.958l2.171-0.369V304.669z"/>
		<g>
			<path fill="#5F4456" d="M168.801,205.713c0.305,1.273,0.433,2.858,1.164,3.972c0.303,0.461,1.048,0.031,0.743-0.434
				c-0.674-1.027-0.795-2.588-1.077-3.766C169.502,204.946,168.672,205.174,168.801,205.713L168.801,205.713z"/>
		</g>
		<g>
			<path fill="#5F4456" d="M170.672,209.764c0.439-0.782,0.909-1.544,1.411-2.287c0.311-0.46-0.434-0.891-0.743-0.434
				c-0.502,0.743-0.972,1.505-1.411,2.287C169.658,209.813,170.401,210.247,170.672,209.764L170.672,209.764z"/>
		</g>
		<g>
			<path fill="#FF9E77" d="M172.337,227.862c-0.032,0.99-0.008,1.973,0.108,2.958c0.059,0.504,0.011,1.405,0.361,1.788
				c0.2,0.219,0.619,0.204,0.873,0.244c0.943,0.147,1.895,0.254,2.841,0.381c-0.051-0.122-0.101-0.245-0.152-0.367
				c-0.805,0.764-1.672,1.326-2.691,1.757c-0.254,0.108-0.035,0.478,0.217,0.372c1.055-0.446,1.95-1.038,2.778-1.824
				c0.15-0.143,0.019-0.344-0.152-0.367c-0.987-0.132-2.996-0.02-3.508-1.062c-0.48-0.978-0.278-2.834-0.244-3.878
				C172.776,227.585,172.346,227.585,172.337,227.862L172.337,227.862z"/>
		</g>
		<g>
			<path fill="#55433E" d="M176.755,230.822c0.124-0.982-0.501-3.279,0.737-3.754c1.1-0.422,1.794,0.493,1.966,1.42
				c0.108,0.582,0.212,1.165,0.318,1.747c0.049,0.272,0.464,0.157,0.415-0.114c-0.26-1.427-0.321-3.867-2.448-3.577
				c-1.981,0.27-1.258,3.016-1.417,4.279C176.29,231.096,176.721,231.093,176.755,230.822L176.755,230.822z"/>
		</g>
		<g>
			<path fill="#55433E" d="M165.65,231.409c0.124-0.982-0.501-3.279,0.737-3.754c1.1-0.422,1.794,0.493,1.966,1.42
				c0.108,0.582,0.212,1.165,0.318,1.747c0.049,0.272,0.464,0.157,0.415-0.114c-0.259-1.427-0.321-3.867-2.448-3.577
				c-1.981,0.27-1.258,3.016-1.418,4.279C165.185,231.683,165.615,231.681,165.65,231.409L165.65,231.409z"/>
		</g>
		<g>
			<path fill="#FF9E77" d="M168.583,233.905c0.462,3.581,6.525,4.299,8.754,2.126c0.199-0.194-0.106-0.498-0.304-0.304
				c-1.86,1.814-7.604,1.391-8.019-1.821C168.978,233.634,168.547,233.631,168.583,233.905L168.583,233.905z"/>
		</g>
		<g>
			<path fill="#FF9E77" d="M168.497,234.506c0.124-0.379,0.506-0.626,0.905-0.559c0.271,0.045,0.387-0.369,0.114-0.415
				c-0.637-0.107-1.233,0.24-1.434,0.859C167.996,234.656,168.411,234.769,168.497,234.506L168.497,234.506z"/>
		</g>
		<g opacity="0.28">
			<path fill="#FF8279" d="M167.958,232.478c0.191,0.48-0.657,1.265-1.951,1.542c-0.626,0.14-1.28,0.118-1.647,0.002
				c-0.356-0.117-0.607-0.243-0.74-0.47c-0.058-0.115-0.054-0.259,0.036-0.412c0.088-0.154,0.263-0.307,0.478-0.429
				c0.435-0.238,0.893-0.402,1.475-0.53C166.738,231.94,167.767,231.992,167.958,232.478z"/>
		</g>
		<g opacity="0.28">
			<path fill="#FF8279" d="M182.077,231.494c0.191,0.48-0.657,1.265-1.951,1.542c-0.626,0.14-1.28,0.118-1.647,0.002
				c-0.356-0.117-0.607-0.243-0.74-0.47c-0.058-0.115-0.054-0.259,0.036-0.412c0.088-0.154,0.263-0.307,0.478-0.429
				c0.435-0.238,0.893-0.402,1.475-0.53C180.858,230.956,181.887,231.007,182.077,231.494z"/>
		</g>
		<g>
			<path fill="#FF9E77" d="M158.522,228.816c-0.846,0.029-1.296,0.819-1.221,1.609c0.076,0.801,0.639,1.414,1.45,1.471
				c0.276,0.02,0.275-0.411,0-0.43c-1.139-0.08-1.5-2.175-0.229-2.219C158.799,229.237,158.8,228.807,158.522,228.816
				L158.522,228.816z"/>
		</g>
		<g>
			<path fill="#FF9E77" d="M157.373,229.99c0.408,0.513,1.031,0.784,1.685,0.741c0.275-0.018,0.277-0.448,0-0.43
				c-0.554,0.036-1.035-0.182-1.38-0.615C157.505,229.47,157.202,229.776,157.373,229.99L157.373,229.99z"/>
		</g>
		<g>
			<path fill="#FF9E77" d="M183.722,229.556c0.931,0.222,1.446-0.625,1.563-1.432c0.129-0.89-0.419-1.753-1.364-1.839
				c-0.276-0.025-0.274,0.406,0,0.43c0.604,0.055,1.009,0.66,0.959,1.223c-0.049,0.547-0.323,1.374-1.043,1.203
				C183.567,229.077,183.452,229.492,183.722,229.556L183.722,229.556z"/>
		</g>
		<g>
			<path fill="#FF9E77" d="M183.982,228.286c0.406-0.366,0.663-0.838,0.741-1.381c0.039-0.271-0.376-0.388-0.415-0.114
				c-0.068,0.475-0.273,0.868-0.631,1.191C183.472,228.168,183.777,228.472,183.982,228.286L183.982,228.286z"/>
		</g>
	</g>
</g>
</svg>
